<svg id="Draw_Layer" data-name="Draw Layer" xmlns="http://www.w3.org/2000/svg" viewBox="0 0 1217.94 1671.94"><defs><style>.cls-1{fill:#4c3d1e;}.cls-1,.cls-2{opacity:0.7;}.cls-2{fill:#306d43;}</style></defs><title>greenthumblogo</title><path class="cls-1" d="M1520.61,210.18c-6,.93-12,2.47-18,3.82a171.2,171.2,0,0,0-21.37,6.33,152.08,152.08,0,0,0-16.86,7.18c-5.8,3-11.35,6.53-16.87,10-11.16,6.94-21.78,14.6-32.41,22.33-10.84,7.88-21.51,16-32.25,24-5,3.73-10,7.48-14.81,11.47-5.08,4.21-10.09,8.5-15.09,12.81-10.67,9.2-20.39,19.51-29.79,30q-6.84,7.61-13.46,15.39c-4.15,4.88-7.88,10.12-11.76,15.22-4.08,5.37-8.39,10.57-12.29,16.08s-7.33,11.5-10.75,17.38c-7.2,12.38-13.92,25-19.86,38.05-2.77,6.09-5.41,12.25-8.25,18.3-3,6.36-6.12,12.65-9.2,19-3.18,6.5-6.16,13.13-8.93,19.82-3.07,7.42-6.06,14.86-8.46,22.52-4.85,15.49-8.62,31.26-12.58,47-2,7.38-4,14.76-5.91,22.16-1.62,6.33-2.63,12.81-3.67,19.26-2.32,14.36-2.85,28.88-2.95,43.4-.09,13.35-.49,26.68-.91,40-.14,4.32-.26,8.65-.23,13v0c0,2.25.08,4.31.18,6.3.27,5.17.64,9.93,1.14,14.54.34,3.15.88,6.32,1.39,9.38l.14.84c.38,2.25.95,4.51,1.49,6.7l.52,2.11c.75,3.16,1.64,6.89,2.46,10.68,1.42,6.49,2.69,13.5,4.13,22.73.61,3.91,3,10.12,6.91,10.12a4.82,4.82,0,0,0,2.45-.75,10.77,10.77,0,0,0,3.64-5.31,27,27,0,0,0,1.05-13.43c-1.63-10.64-3.34-20.14-5.23-29-.25-1.14-.5-2.28-.75-3.42-.77-3.41-1.55-6.95-2-10.44l-.44-3.15-.54-3.89c-.23-1.64-.34-3.34-.44-5,0-.58-.07-1.15-.1-1.73l0-.49,0,.38,0-.38c.1,1.25.2,2.5.29,3.75l.06.75c-.21-6.66-.2-13.41,0-20.6.12-3.65.31-7.36.5-10.95.13-2.4.25-4.81.35-7.21.28-6.38.46-12.87.64-19.15.19-6.59.38-13.41.68-20.1.55-5.48,1.27-10.95,2.21-16.73.73-4.52,1.74-9.32,3.28-15.57,1.07-3.69,2.18-7.37,3.29-11.06q1-3.42,2.05-6.83c1.29-4.33,2.46-8.78,3.59-13.08q.74-2.82,1.5-5.64a364.08,364.08,0,0,1,12.26-38.42c5.07-13,10.95-25.38,16.55-36.84,3.13-6.4,5.71-11.81,8.18-17.39l.81-1.84c2.37-5.36,4.82-10.9,7.41-16.26l1.1-2.27,1-2.11c3.73-7.17,7.86-14.62,13.38-24.17l.13-.23c2.23-3.85,4.53-7.83,7.07-11.52,2.93-4.27,6-8.29,9.51-12.73q2.4-3.08,4.78-6.17c4.14-5.37,8.41-10.91,12.86-16.19,5.76-6.82,12.07-13.92,19.29-21.7,4.22-4.28,8.21-8.2,12.18-12,3.46-3.3,7.17-6.48,10.75-9.55l3.85-3.32c7.82-6.8,16.25-13.13,24.41-19.24q3.5-2.63,7-5.27c5.66-4.3,10.9-8.2,16-11.94,3.93-2.87,8-5.65,12-8.33l4.08-2.77a329.71,329.71,0,0,1,33.22-19.85,95.06,95.06,0,0,1,14-5.79c4.3-1.29,7.93-2.28,11.41-3.11,3.33-.79,6.8-1.26,10.17-1.71l2.61-.36c3.88-.55,8-1.09,12.13-1.6,1.75-.21,3.61-.39,5.87-.55,1.24-.09,2.46-.14,3.65-.14a40.79,40.79,0,0,1,10.1,1.22c3.67,1.41,7.25,3.16,10.72,4.86l.53.26A77.63,77.63,0,0,1,1564,273.15c3.82,3.26,7.69,6.84,11.82,10.93a89.21,89.21,0,0,1,9.82,13.45c.81,1.35,1.57,2.77,2.29,4.14l.25.48c2.21,4.62,4.52,9.55,7.05,15.07a124.61,124.61,0,0,1,5.86,16.24c.68,3.14,1.32,6.34,1.89,9.5.31,1.71.56,3.56.79,5.81,0,3,.09,6,0,9.06q-.06,1.42-.15,2.83c-.5,4.66-1,8.56-1.67,12.51-.6,3.43-1.3,6.91-2.15,10.63-1.85,6.08-3.53,11-5.3,15.43-2,5.09-4.36,10.36-7.59,17.07-6.33,12.62-12,24-17.25,36-1.58,3.61-3.14,7.29-4.64,10.86-1.09,2.59-2.19,5.18-3.3,7.76-2.16,5-4.6,10-7,14.84l-.22.45c-3,5.88-5.55,10.62-8,14.89-3.55,6.14-7.35,12.18-10.93,17.84-6.65,10.5-13.84,21.52-22,33.68l-2.26,3.38c-6.54,9.76-13.3,19.85-19.6,30s-12.08,20.73-17.71,31l-2.24,4.07c-7.93,14.42-14.05,26.6-19.28,38.33-4.33,9.72-8.3,19.78-12.14,29.51q-1.59,4-3.19,8.05c-2.14,5.38-4.93,12.48-7.54,19.66-1.53,4.21-2.94,8.54-4.31,12.74q-.82,2.53-1.66,5c-2.48,7.46-4.51,13.74-6.39,20.12-2.15,7.3-4.2,15.26-6.29,24.33a135.19,135.19,0,0,0-2.35,16.18l-.06.62c-.9,8.57-1.46,16.19-1.73,23.27-.25,6.66-.32,12.6-.21,18.15.14,7.11.83,14.32,1.5,21.29l.26,2.7c1,11,3.41,21.26,6.4,33.59,2.79,11.54,5.7,23.13,8.62,34.45,7.52,29.74,13.39,54.24,18.46,77.11q1.32,6,2.7,12c2,8.89,4.1,18.07,5.93,27.15.75,3.77,1.48,7.54,2.22,11.3,1.86,9.57,3.78,19.46,6.1,29.11l.86,3.6c2.13,8.88,4.33,18.06,6.73,27,2.24,8.37,5.09,16.6,7.83,24.24l.27.75a225.42,225.42,0,0,0,9,22.38c3.13,6.44,6.47,12.9,9.7,19.16l2.36,4.56c5.88,12.95,10.82,27.07,15.55,44.44,1.09,4.64,1.86,8.22,2.49,11.61.52,2.82,1,5.9,1.39,9.7.1,2.25.15,4,.16,5.58s0,3.14-.12,5c-.27,2.12-.6,4.63-1,7.2s-1,5.23-1.56,7.63c-2.55,9-5.47,18-8,25.75-3,9.21-7,18.25-10.79,27l-.38.87-4.66,10.7c-6.78,15.58-13.79,31.68-21,47.36-5,9.68-10.41,19.35-15.65,28.7q-3.23,5.76-6.43,11.52c-2.68,4.84-5.26,9.83-7.75,14.65q-2.11,4.08-4.25,8.16c-2.15,4.06-4.42,8.07-6.55,11.79-1.85,3.23-3.44,6.26-4.87,9.27-.49,1-1,2-1.39,3.05-.7,2.33-1.34,4.72-1.89,7.1a26.87,26.87,0,0,0-.83,7.77,37.73,37.73,0,0,0,.77,9.52l.64,2.45.66,2.58a13.36,13.36,0,0,0,4.5,6.57,4.94,4.94,0,0,0,5.78,0,13.23,13.23,0,0,0,4-5.1c.57-.88,1.14-1.76,1.72-2.63,1-1.53,2.05-3.12,3-4.71,1.41-2.3,2.75-4.71,4-7l.71-1.27c2.63-4.74,5.06-9.7,7.41-14.5l1-1.94c4.92-9.58,10.18-19.19,15.26-28.48l2.47-4.52c1.09-2,2.21-4,3.33-6,2-3.54,4.06-7.21,5.94-10.89,4.08-8,7.71-15.55,11.11-23l3.59-7.9c4.23-9.32,8.61-19,12.85-28.46l7.86-17.66c2.44-5.48,4.82-11.47,7.5-18.83,1.68-4.64,3.25-9.41,4.77-14l1.32-4c1.06-3.2,2-6.46,2.91-9.54,1.38-4.74,2.8-9.78,3.78-14.68.58-2.92,1.32-6.79,1.88-10.73.2-1.38.35-2.71.46-4.07s.23-2.51.36-3.78c.27-2.66.54-5.42.59-8,.09-4.45,0-8.89-.17-13.22q-.29-6.24-1-12.45c-.78-6.7-1.86-13.3-3.25-19.9-1.7-8.12-3.89-16.18-6.14-24.15-3.61-12.77-7.64-25.44-13.34-37.46-5.23-11-10.94-21.9-15.23-33.36q-3.6-9.63-7-19.32c-1.85-5.25-3.45-10.54-4.95-15.9-2.8-11.14-5.67-22.29-7.89-33.56-2.5-12.65-5-25.28-7.89-37.84s-5.77-25.22-8.77-37.8c-3.61-15.13-7.5-30.18-11.46-45.23l.56,2.17c-3.46-13.34-7-26.64-10.62-40-2-7.8-4-15.61-5.79-23.46a241.71,241.71,0,0,1-4.54-27.71c-.3-5.77-.42-11.52-.37-17.32,0-4.89.32-9.78.67-14.66.41-4.18.81-8.37,1.54-12.5.68-3.89,1.52-7.72,2.43-11.55,2.57-9.2,5.46-18.27,8.47-27.34,3.36-10.09,6.84-20.09,10.74-30s7.62-20,11.71-29.95c3.78-9.16,7.85-18.15,12.16-27.06,5.87-11.33,12-22.48,18.29-33.59,6.58-11.65,13.44-23.1,20.77-34.3,7.23-11,14.84-21.84,22.07-32.88,7.35-11.23,14.89-22.36,21.8-33.87,3.42-5.7,6.6-11.56,9.59-17.5,4-7.87,8-15.73,11.55-23.78,2.95-6.63,5.83-13.3,8.81-19.92,2.25-5,4.65-9.89,7.07-14.79,3.52-6.86,7-13.71,10.4-20.63a158.49,158.49,0,0,0,7.21-16.82c5-14.21,9.16-28.9,10.69-43.93.55-5.44,1-10.88,1.42-16.33.23-3.07.5-6.2.43-9.29-.13-5.68-.54-11.31-1-17-.29-3.34-.62-6.7-1.22-10-.64-3.5-1.31-7-2.11-10.44a151.38,151.38,0,0,0-4-15.1c-1.07-3.14-2.11-6.25-3.37-9.31-1.38-3.34-2.86-6.6-4.37-9.88-3.47-7.53-7.13-15-11.14-22.26a79.2,79.2,0,0,0-11.88-16.19c-3.21-3.4-6.52-6.7-10-9.85-2.12-1.94-4.26-3.87-6.46-5.72-1.6-1.34-3.2-2.69-4.84-4a62.59,62.59,0,0,0-11-6.82,110.37,110.37,0,0,0-13.23-5.6,50.25,50.25,0,0,0-13.87-3c-.38,0-.76,0-1.14,0a50.55,50.55,0,0,0-7.67.84Zm83.34,140.22c.17,1.87.3,3.74.45,5.61q-.23-2.8-.45-5.61Z" transform="translate(-436.53 -209.34)"/><path class="cls-1" d="M1208,537.35c-3.52,1.47-6.75,3.27-8.84,6.61-3.2,5.12-3.62,11.29-3.3,17.16.42,7.77.68,15.58.91,23.36.25,8.13.38,16.28.24,24.41-.08,4.24,0,8.5-.23,12.73-.19,3.88-.38,7.76-.56,11.64q-.37,3.58-.73,7.15c-.25,2.44-.66,4.83-1.07,7.25-1,5.77-2.18,11.47-3.41,17.2q-3.61,16.72-7.55,33.38c-1.9,7.05-3.85,14.09-6.45,20.93-1.5,4-3,7.89-4.65,11.78-1.07,2.52-2.18,5-3.3,7.52a41,41,0,0,0-3.36-6,33,33,0,0,0-9.08-9.47,47.87,47.87,0,0,0-7.56-3.57c-2.89-1.2-5.74-2.53-8.59-3.83-5.65-2.57-11.38-4.92-17-7.45-6.48-2.89-12.73-6.24-19.16-9.22-8.84-4.1-18.63-6.09-28-8.75-6.23-1.77-12.43-3.82-18.79-5.08-6.65-1.32-13.32-2.71-20-3.68s-13.27-1.46-20-2c-7-.52-14-1.26-20.95-2.09-3.37-.4-6.72-.81-10.1-1.09-3.77-.3-7.51-.46-11.29-.59-6.95-.25-13.92-.17-20.87-.24-13.72-.14-27.38.6-41.09,1.09s-27.19.89-40.79,1.16c-7,.13-13.91.32-20.86.42a156.7,156.7,0,0,1-19.9-.69c-6.45-.73-12.79-2-19.2-3a93.4,93.4,0,0,0-20-.75c-6.7.45-13.51.89-20.08,2.35a236.55,236.55,0,0,0-23.58,6.69,75.52,75.52,0,0,0-11.89,5.73q-4.46,2.43-9,4.74c-6,3.07-11.93,6.17-17.72,9.62-6,3.58-11.88,7.38-17.78,11.13a115.11,115.11,0,0,0-15.84,11.92c-5,4.52-10,9-14.9,13.61q-9.07,8.46-17.38,17.68a129,129,0,0,0-12.85,16,150.46,150.46,0,0,0-11.91,22.55c-2.67,6.22-4.84,12.62-7,19-2.26,6.6-4.54,13.18-6.57,19.86-3.55,11.64-5.76,23.64-8.49,35.48-1.46,5.32-3,10.61-4.61,15.9q-.83,2.78-1.6,5.57a8,8,0,0,0-3.48,1.4c-1.7,1.09-3.22,3.34-4.31,5.09a63.39,63.39,0,0,0-2.86,5.92l-1.39,5.39a25.74,25.74,0,0,0-.92,7.93,41.21,41.21,0,0,0,.26,7.57c-4.25,5-8.39,10.18-12.5,15.35-8.5,10.66-16.71,21.58-24.77,32.59-4.24,5.81-8.56,11.59-12.59,17.55s-8.24,11.92-11.89,18.15c-4.21,7.19-8.31,14.41-11.93,21.93-1.52,3.14-3,6.25-4.3,9.48-1.46,3.57-2.68,7.18-3.9,10.84-.41,1.24-.72,2.5-1.05,3.77-1,3.8-2.16,7.64-3,11.47a118.58,118.58,0,0,0-2.17,13.4c-.4,4-.68,8-.82,12a124.17,124.17,0,0,0,.76,14.36,206.08,206.08,0,0,0,4.28,26.46c3,13.64,5.41,27.4,7,41.26.31,5.21.5,10.44.33,15.66q-.16,1.08-.35,2.15a94.85,94.85,0,0,1-3.67,10q-1,1.74-2,3.43c-.28.41-.57.84-.89,1.33s-.51.81-.75,1.23c-5.92,9-13.24,17.06-20.3,25.17-1.93,2.22-3.89,4.43-5.73,6.72l-3.51,4.38c-2.91,3.63-4.86,7.82-6.87,12a31.61,31.61,0,0,0-1.71,4.8c-.93,3.12-1.66,6.29-2.41,9.46-1.35,5.78-1.75,11.75-2.2,17.65-.18,2.28-.29,4.52-.29,6.81,0,3.46.48,6.92.79,10.37l.29,1.75q.73,2.89,1.48,5.78c-1.64,4.23-3.26,8.49-4.62,12.81-1.61,5.08-2.84,10.25-4.09,15.43-.87,3.6-1.3,7.38-1.87,11-1.08,6.85-2.3,13.68-3.45,20.52-2.56,15.25-3.3,30.85-3.3,46.29,0,14.11.57,28.14,1.54,42.21.61,8.82,1.34,17.64,2.1,26.45.62,7.21,1.64,14.34,2.76,21.48,2.16,13.76,4.81,27.45,7,41.2,1.07,6.68,1.86,13.39,3,20.05,1.21,6.85,2.63,13.62,4.26,20.37,0,.17.05.34.08.5l1.25,4.84.06.23c.45,1.76.88,3.46,1.34,5.16,0,.12.06.23.09.34v0c.25.93.5,1.86.78,2.79A258,258,0,0,0,475.54,1642c6,12.65,12.08,25.23,18,37.91,2.75,5.91,5.07,12,7.71,18,1.48,3.36,3,6.68,4.61,10a140,140,0,0,0,6.88,12.8,70.46,70.46,0,0,0,9.14,11.63,124,124,0,0,0,9.88,9.61l4.34,3.64c1.63,1.36,3.46,2.54,5.17,3.79,5.14,3.77,10.9,6.72,16.55,9.64,12.09,6.25,25.39,9.81,38.18,14.25,6.47,2.25,12.85,4.82,19.17,7.46,6,2.49,11.55,5.76,17.48,8.31a224.89,224.89,0,0,0,21.62,7.52c7,2.18,14,4,21,5.8,2.87.73,5.76,1.41,8.67,1.93,3.41.61,6.8,1.05,10.23,1.5a139.6,139.6,0,0,1,20.33,4c13.26,3.78,26.5,7.64,39.77,11.4,6.55,1.85,13.19,3.29,19.89,4.55s13.45,2.16,20.14,3.48c2.8.56,5.53,1.33,8.27,2.13,5.35,1.77,10.68,3.61,16,5.45,6.17,2.14,12.41,4.1,18.58,6.25,12.71,4.42,24.84,10.18,37.05,15.77,3.15,1.45,6.31,2.84,9.55,4.07,3.92,1.48,7.94,2.71,12,3.92,3.11.93,6.26,1.71,9.4,2.52s6.48,1.68,9.75,2.3c3.09.59,6.2,1.11,9.29,1.75s6.21,1.41,9.32,2.13c6.23,1.43,12.48,2.93,18.77,4,12.48,2.21,25.18,2,37.79,1.3,6.41-.36,12.8-.85,19.2-1.43,6.58-.59,13.2-1.09,19.74-2.05,7-1,14-2.19,21.1-3,6.48-.73,12.94-1.5,19.38-2.51q5.36-.84,10.72-1.54c3.19-.41,6.39-.66,9.58-1.08a179.41,179.41,0,0,0,40.77-10.36c6.12-2.26,11.75-5.88,17.44-9s11.29-6.2,17-9.1c6.21-3.14,12.52-6,18.64-9.32a109.89,109.89,0,0,0,14.06-9.21,5.51,5.51,0,0,0,1.55,1.41,3.8,3.8,0,0,0,2,.59.22.22,0,0,0,0,.05,7,7,0,0,0,1.53-.25l.24.43c.67,1.21,1.3,2.46,1.93,3.7,1.41,2.77,2.78,5.55,4.27,8.27,1.59,2.92,3.25,5.78,5,8.61a56.52,56.52,0,0,0,5.71,7.36,88.21,88.21,0,0,0,16.58,15.06,56,56,0,0,0,8.29,4.43c1.35.63,2.76,1.15,4.14,1.71.68.27,1.42.48,2.11.71,1.62.55,3.29,1.2,4.93,1.62a103,103,0,0,0,25.47,3.79,200.38,200.38,0,0,0,21.63-1.47c6.57-.68,13.1-1.91,19.57-3.22s12.73-2.78,19-4.7c3.39-1,6.75-2.13,10.12-3.23,6.89-2.15,13.78-4.26,20.59-6.68,3.05-1.09,6-2.6,8.94-4,3.2-1.52,6.38-3.09,9.63-4.49,6.81-3,13.55-5.93,20.09-9.46,5.86-3.16,11.63-6.48,17.43-9.74s11.65-6.89,17.64-10.06q9.5-5,18.91-10.25c6-3.33,12.29-6.1,18.33-9.34a79,79,0,0,0,15.33-11.41c3.34-3,6.35-6.46,9.4-9.77,2.07-2.24,4.09-4.55,6-6.91,4.47-5.52,8.72-11.13,12.74-17,3.78-5.51,7.29-11.21,10.9-16.83,3.71-5.77,7.54-11.46,11.23-17.24,3.83-6,7.66-12,11.55-17.94,3.67-5.59,7.27-11.25,11-16.8,3.95-5.85,8-11.62,12-17.42s7.55-11.57,11.18-17.43c3.82-6.17,7.49-12.41,11.09-18.71,2.15-3.75,4.07-7.72,6-11.61,1.44-3,2.93-5.91,4.32-8.9,3.07-6.62,6.07-13.27,8.84-20,2.6-6.34,4.91-12.79,7.23-19.24,2.46-6.86,4.32-13.93,6.18-21,2-7.62,3.91-15.28,5.53-23,2.89-13.76,4.55-27.69,6.4-41.61,1-7.32,2-14.61,2.81-21.95.54-4.81.83-9.65,1.2-14.48.26-3.42.22-6.87.27-10.3,0-1.86-.2-3.76-.3-5.62-.14-2.63-.32-5.26-.6-7.88-.42-4-.91-7.91-1.5-11.87-1-6.73-2.74-13.37-4.29-20-1.77-7.57-3.41-15.17-5.48-22.67-1.86-6.75-3.8-13.47-5.73-20.2a209.64,209.64,0,0,0-6.87-20.44c-2.72-6.78-6.36-13.2-9.79-19.64a138,138,0,0,0-15.59-23.19c-6.57-7.92-13.45-15.58-20.71-22.89-3.24-3.26-6.84-6.21-10.27-9.26q-5.41-4.82-11-9.38a252.38,252.38,0,0,1-20.17-18c-3.61-4-7-8.15-10.27-12.48-1.61-2.17-3.29-4.33-4.72-6.62-1.57-2.51-3-5-4.44-7.62q-1.8-3.66-3.58-7.34a77.61,77.61,0,0,1-5.05-13c-1-4.41-1.74-8.9-2.42-13.37-.18-1.21-1.14-3.91-2.87-2.88s-1.68,4.12-1.44,5.75a162.56,162.56,0,0,0,3.84,19.29c1.43,5.16,3.81,10.1,5.85,15a179.09,179.09,0,0,0,12.7,25.28,133.19,133.19,0,0,0,8,11.67v0a120.5,120.5,0,0,0,7.86,9.26c3.54,3.75,7.19,7.63,10.9,11.33,1.69,1.69,3.39,3.36,5.1,5,1.43,1.41,2.87,2.81,4.29,4.23,4.13,4.34,8.27,8.73,12.32,13.07,3.65,3.91,7,8.23,10.25,12.39.92,1.18,1.84,2.37,2.77,3.54,3.8,4.82,7.48,9.65,10.92,14.37a126.25,126.25,0,0,1,9.49,16c3.68,7.49,7.2,14.86,9.67,22.68,2.23,7.07,4.13,14.37,6,21.43q.73,2.81,1.46,5.61c1.68,6.76,3.31,14.12,5,22.5l.54,2.71q1,5,2,9.94c.79,4,1.27,8.21,1.75,12.23l.05.46c.18,2.73.3,5.16.37,7.43.09,3.45,0,6.94-.18,10.34-.65,6.5-1.32,11.89-2.09,17q-.64,4.12-1.29,8.23c-.65,4.09-1.3,8.18-1.91,12.28-1.23,8.3-2.3,15.06-3.36,21.27-1,5.95-2.48,11.92-3.9,17.69l-.42,1.71a318.08,318.08,0,0,1-11.15,35.07c-2.87,7.33-5.66,14-8.53,20.39-2.34,5.22-4.87,10.45-7.26,15.32-3.38,6.45-6.34,11.75-9.29,16.66-3.36,5.61-7.09,11.63-11.73,19-3.43,5.43-7.18,10.78-10.8,15.95l-.75,1.07c-3.37,4.82-6.63,9.84-9.78,14.7l-1.66,2.55c-5.24,8.07-10.5,16.33-15.58,24.32q-3.11,4.88-6.22,9.76c-2.3,3.62-4.61,7.32-6.83,10.9-5.21,8.38-10.59,17-16.44,25.2a198.87,198.87,0,0,1-14,17c-1.89,1.88-3.66,3.55-5.39,5.11a68.11,68.11,0,0,1-6.88,5.23l-.41.29a104.23,104.23,0,0,1-13.43,7.47l-3.43,1.7c-4,2-8,4.32-11.87,6.52-1.61.92-3.23,1.84-4.85,2.75-2.48,1.39-5,2.76-7.47,4.08-3.25,1.75-6.62,3.57-9.89,5.45-4.94,2.85-10.39,5.89-16.64,9.29-5.8,3.15-11.79,6.4-17.93,9.19-2.11,1-4.32,1.83-6.45,2.67l-2.13.84c-3.21,1.29-6.41,2.68-9.67,4.11l-2.58,1.14c-2.14.95-4.35,1.93-6.56,2.82-2.37,1-4.73,1.79-6.93,2.53q-5.85,1.71-11.69,3.48c-1.63.5-3.26,1-4.88,1.56-2.53.83-5.15,1.69-7.77,2.39-8.23,2.2-17.13,4.11-27.23,5.86-3.67.63-7.45,1-11.11,1.39l-2.24.23c-4.28.45-8.79.75-13.79.93q-1.46.05-2.92.05a95.37,95.37,0,0,1-27.09-4.15,80.36,80.36,0,0,1-14.28-6.87,49,49,0,0,1-5.72-4.35c-1.65-1.41-3.27-2.89-5-4.53-.91-1-1.81-2-2.7-3.09a38.3,38.3,0,0,1-3.19-4.68l-.82-1.33c-1.66-2.64-3.16-5.44-4.54-8.09l2.74-2.08c4-3,8.07-6.11,11.92-9.4a172.51,172.51,0,0,0,12.55-12.26l2.07-2.16.8-.83.88-.89.35-.36-.06.06-.37.38.33-.34-.34.34c1.87-1.93,3.71-3.86,5.49-5.76,2.87-1.75,5.93-3.5,9.37-5.34,1.44-.77,2.89-1.52,4.34-2.27,2.18-1.12,4.42-2.28,6.6-3.5,6.43-3.63,12.07-8.71,17.3-13.59s10.56-10.27,16.33-16.47a113.9,113.9,0,0,0,11.87-16,49.76,49.76,0,0,0,6.37-13.25,31.15,31.15,0,0,0,1.3-8.59,25.18,25.18,0,0,0-1.29-8.09,11.78,11.78,0,0,0-3.2-4.94,7.52,7.52,0,0,0-4.07-1.57l-.38,0a9.4,9.4,0,0,0-3,.71l-.24.09a21.55,21.55,0,0,0-3.49,1.66,23.17,23.17,0,0,0-4.34,3.26c-2.93,2.73-5.14,6.86-6.76,12.64a42.14,42.14,0,0,1-1.89,5.43c-1.32,2.47-2.81,4.92-4.25,7.29l-.61,1a72.72,72.72,0,0,1-6.26,9l-1,1.16c-4.68,5.66-9.53,11.52-14.62,17l-1.76,1.8-1.85,1.89c-1.53,1-3.08,1.92-4.63,2.86s-3.21,2-4.8,3a203.74,203.74,0,0,0-21.75,16.19l-.84.71c-6.45,5.42-13.11,11-19.29,16.94-1.36,1.3-3,2.85-4.52,4.44-3.84,2.09-7.79,4.09-11.62,6l-3.93,2a156.94,156.94,0,0,1-17.25,7.63c-2.66,1-5.39,1.9-8,2.78-3.32,1.12-6.76,2.27-10.08,3.55-6.3,2.45-12.61,5.19-18.72,7.84-1.7.74-3.39,1.54-5,2.32-1.12.53-2.24,1.06-3.37,1.58-3,1.39-6,2.63-9.17,3.78a190.47,190.47,0,0,1-36.3,6.68c-1.49.14-3,.24-4.47.34s-3.12.21-4.68.36c-3.62.36-7.46.83-11.73,1.44-5.29.75-10.68,1.4-15.89,2l-2.93.36c-4,.49-8.1,1.07-12,1.64-3,.43-6,.86-9,1.26-6.07.8-12.29,1.19-18.3,1.56l-2.13.14c-6.7.42-12.75.67-18.5.75h-2.2c-5.51,0-11.11-.27-16.53-.54l-.52,0a166,166,0,0,1-19.16-1.86c-2.21-.37-4.45-.84-6.61-1.3l-2.69-.57-2.71-.54c-2.17-.44-4.42-.89-6.61-1.38-3.93-.89-7.16-1.59-10.15-2.21-1.31-.27-2.62-.51-3.93-.75-1.72-.32-3.5-.64-5.25-1-6.89-1.54-13.25-3.2-19.43-5.07-2.26-.75-4.46-1.51-6.55-2.41-3.13-1.34-6.38-2.81-10.25-4.64l-5.54-2.62-7.72-3.66-6-2.79q-17.51-8.09-35.52-15.06c-7.41-2.86-14.84-5.55-22.41-8-1.45-.46-2.92-.87-4.4-1.23h0c-3.68-.89-7.48-1.52-11.17-2.13-1.5-.25-3-.5-4.48-.76-6.57-1.17-13.17-2.59-19.62-4.21-4.12-1-8.26-2.29-12.27-3.5-2.25-.68-4.5-1.36-6.75-2-6.12-1.75-12.37-3.46-18.41-5.1l-3.48-.95a154.79,154.79,0,0,0-20.69-4.55c-1.13-.15-2.27-.28-3.4-.41-2.43-.28-4.94-.57-7.35-1-3.93-.74-7.69-1.56-11.49-2.49-6.29-1.55-12.93-3.43-20.32-5.75l-2.33-.75a114.42,114.42,0,0,1-11.76-4.23c-3.37-1.49-6.71-3.16-9.95-4.78-2.11-1.05-4.23-2.11-6.37-3.13-10.07-4.79-20.43-8.5-32.89-12.6-4.61-1.51-9.46-3.25-15.73-5.64a158.7,158.7,0,0,1-16.79-7.82,114.19,114.19,0,0,1-26.7-19.62c-1.73-1.91-3.34-3.86-4.92-6a73.31,73.31,0,0,1-5.69-9.15c-1.75-3.7-3.23-7-4.52-10.05-.71-1.68-1.41-3.36-2.11-5-1.12-2.71-2.28-5.51-3.47-8.24-2.69-6.17-5.54-12.4-8.29-18.42q-1.84-4-3.67-8-1.55-3.4-3.11-6.8c-3.14-6.85-6.38-13.93-9.34-21a238.88,238.88,0,0,1-8.75-25.21,35.09,35.09,0,0,0-1.19-5c-1.22-5.36-2.31-10.79-3.24-16.13-.76-4.37-1.39-8.84-2-13.16-.59-4.16-1.2-8.47-1.93-12.69q-.59-3.4-1.18-6.81c-2.54-14.58-5.17-29.65-6.7-44.61l-.17-2.27c-.86-11.56-1.75-23.52-2.05-35.31-.41-15.95-.29-28.84.38-40.57.94-7.87,2.24-15.82,3.49-23.52l.08-.5c.49-3,1-6,1.42-8.93l.59-3.81c.37-2.35.85-4.88,1.48-7.74,2.79-8.78,6.08-17.55,9.27-26l1.09-2.9c3.58-9.55,7.64-19.91,12.41-31.7,1.86-4.61,3.9-9.23,5.88-13.7l.19-.43h0q3.45-7.83,6.42-15.85c.28-.76.56-1.52.84-2.29v0c1.16-3.18,2.29-6.36,3.41-9.55l1.09-3.06q1.44-4,2.9-8.09c.54-1.49,1-2.87,1.4-4.22.68-2.27,1.28-4.61,1.77-7a28.64,28.64,0,0,0,.59-6.4c.12-.29.24-.57.36-.87a89.68,89.68,0,0,0,3.38-10.37c.81-3,1.65-6.14,2.2-9.35a77.87,77.87,0,0,0,.81-8c0-.69.09-1.37.14-2,.21-2.9.3-5.93.28-9.52a243.24,243.24,0,0,0-1.66-25.77c-.57-5.12-1.42-10.31-2.23-15.33q-.42-2.54-.82-5.09c-1-6.33-2.3-12.71-3.56-18.87l-.09-.42c-1.55-7.64-2.59-13.88-3.25-19.64-.1-2.33-.12-4.68-.07-7,.4-3.09.93-6.16,1.63-9.39l1.16-4.21c.48-1.77,1.14-3.54,1.77-5.25.32-.86.64-1.72.93-2.58.57-1.67,1.32-3.34,2-4.95.37-.82.73-1.64,1.08-2.46.7-1.66,1.55-3.3,2.37-4.89.22-.43.45-.87.68-1.3l.16-.3-.11.23.12-.22-.73,1.45-.61,1.2-.62,1.24c2.79-5,5.73-10.09,8.75-15.08,2.77-4.57,5.89-9,8.91-13.36l.66-.95c6.92-9.91,14.35-19.69,21.54-29.14l.13-.17c7-9.25,14.27-18.53,21.5-27.57.7-.87,1.4-1.75,2.12-2.62l.21-.25h0c.34.66.72,1.34,1.13,2.06a6.52,6.52,0,0,0,11.95,0,21.06,21.06,0,0,0,2.84-5.3,49.54,49.54,0,0,0,1.73-6c.15-.64.3-1.27.46-1.9a41.06,41.06,0,0,0,.84-5.06l.17-.52.17-.52c.52-1.58,1.07-3.17,1.62-4.76a91.46,91.46,0,0,0,4.2-14.59,39.59,39.59,0,0,0-1.57-20.16l-.58-1.15-.39-.79c.84-2.81,1.75-5.65,2.62-8.4q.54-1.69,1.07-3.38c2.88-9.14,5.16-18.61,7.37-27.77.59-2.46,1.19-4.92,1.8-7.37,2.16-7.3,4.7-14.84,8-23.73.47-1.29.94-2.58,1.4-3.87.85-2.39,1.73-4.86,2.69-7.24,1.46-3.63,3-7.14,4.59-10.75a92.46,92.46,0,0,1,8.27-13.2c3.63-4.65,7.75-9.44,13-15.06,2.71-2.75,5.66-5.68,8.77-8.54,2.46-2.25,4.95-4.46,7.43-6.68l3.48-3.1c3.36-3,6.81-6,10.56-9.05a94.72,94.72,0,0,1,11-7.4l2.75-1.68,2.25-1.4c3.32-2.07,6.75-4.2,10.16-6.22,3.8-2.25,7.79-4.32,11.64-6.32l.67-.34c1.66-.86,3.32-1.7,5-2.54,2.44-1.23,5-2.5,7.41-3.82l.28-.15L747,730a68.3,68.3,0,0,1,9.72-4.38A113.64,113.64,0,0,1,773,721.46c7.13-1.1,14.16-1.58,20.7-1.94,1-.05,2-.08,3.08-.08h0a72.86,72.86,0,0,1,17.12,2.2l4.6,1.14c4.79,1.2,9.74,2.44,14.74,3.2a117.7,117.7,0,0,0,17.42.9h4.13c3.93,0,7.86,0,11.79-.08l6.77-.06c12.21-.08,25.57-.38,42.06-1l5.71-.21c8.26-.3,16.81-.62,25.23-.62,2.36,0,4.65,0,6.83.07l6.57.13c10.76.2,21.89.39,32.73,1.86,6.34.86,13.08,1.76,19.75,2.51,2.9.33,5.85.61,8.71.89,3.55.34,7.21.69,10.82,1.13,4.59.57,9.23,1.54,13.71,2.47,1.7.35,3.39.7,5.09,1,5.08,1,10.16,2.24,15.42,3.77l2.9.86-.35-.12-.12,0,.09,0-.2-.07c7.39,2.37,14.23,4.49,20.91,6.47a84.3,84.3,0,0,1,8.56,3.7c1.08.54,2.16,1.14,3.21,1.72l1.58.88c2.68,1.45,5.87,3.16,9.15,4.83,4.31,2.2,8.82,4.23,13.18,6.2l4.55,2.07c5.27,2.41,10.2,4.59,15.06,6.64-.23,1.78-.47,3.39-.71,4.93-.38,2.34-.9,4.68-1.41,7-.89,3.06-1.79,6-2.92,9-.22.58-.43,1.17-.65,1.75-.46,1.25-.93,2.54-1.48,3.77l-1.58,3.5-1.11,2.43a105.56,105.56,0,0,1-7.36,12.3l-1.49,2.07-.07.09-.07.08c-1.06,1.25-2.1,2.52-3.14,3.79-1.73,2.13-3.53,4.33-5.43,6.38l.82-.85a4.74,4.74,0,0,1-1,1l0,0a4.59,4.59,0,0,1-.61.38c-1.5.91-2.55,3-3.1,6.21a19.33,19.33,0,0,0,0,6.2,12.23,12.23,0,0,0,1.75,4.82,4.05,4.05,0,0,0,3.49,2.27,3.22,3.22,0,0,0,.77-.09,9.59,9.59,0,0,0,4.68-2.92,51.35,51.35,0,0,0,5.95-6.91A131.33,131.33,0,0,0,1139,824.7a207.45,207.45,0,0,0,9.11-19.11c.22-.55.44-1.1.66-1.66,2-3.41,3.91-6.8,5.64-10.11.29-.55.58-1.11.86-1.67l-.16.31c1.73-3.45,3.42-6.87,5-10.17,4-1,4.06-1.1,6.51-3.92l.7-.8a15.28,15.28,0,0,0,2.39-4.37c.21-.51.42-1,.65-1.51a22.75,22.75,0,0,0,1.77-7.16,50.06,50.06,0,0,0,.63-8.73q.86-1.63,1.75-3.26c2.34-4.29,4.48-8.6,6.46-12.62a213.4,213.4,0,0,0,8.14-19.88l.4-1.07c.41-1.12.77-2.3,1.11-3.44.16-.54.33-1.08.5-1.62s.35-1.08.52-1.62c.37-1.13.75-2.3,1.08-3.46s.7-2.45,1-3.67l.08-.25c.65-2.26,1.3-4.53,1.9-6.8,2.27-8.58,4.59-17.16,6.8-25.75q-.43,1.67-.86,3.34c1.41-5.44,3-10.87,4.13-16.38l1.7-8.09c.51-2.41.68-4.95,1-7.39,1.46-10.89,1.93-21.91,2.39-32.88.39-9.18.53-18.37.6-27.56,0-4.5.05-9,0-13.5,0-1.91-.09-3.81-.19-5.71,1.69-1.29,3.43-2.49,5.17-3.73a67.52,67.52,0,0,1,5.87-3.75,8.8,8.8,0,0,0,3-4.36,22.57,22.57,0,0,0,0-14.36l-1.32-2.63a4.55,4.55,0,0,0-3.59-2.34,94.28,94.28,0,0,0-12.5,4.34Zm95.92,1171a28.12,28.12,0,0,1,3.12-5.17,18.18,18.18,0,0,1,2.79-2.13c-1.32,1.95-2.68,3.87-4.14,5.7q-1.34,1.68-2.69,3.32.47-.86.93-1.72Z" transform="translate(-436.53 -209.34)"/><path class="cls-1" d="M863.42,792.24a18.11,18.11,0,0,0,0,5.81c.52,3,1.52,5,2.9,5.81a148,148,0,0,1,13.52,8.41c3.41,2.43,7,5.17,10.9,8.38q5.4,4.44,10.83,8.84c3.34,2.72,6.46,5.79,9.46,8.75l.3.29c3.46,3.67,7.25,7.61,11.58,12.06,1.29,1.32,2.7,2.57,4.07,3.78.69.61,1.38,1.21,2,1.83,1.38,1.27,2.9,2.45,4.38,3.6.74.57,1.48,1.15,2.21,1.74,1.41,1.14,2.9,2.23,4.34,3.29l2.22,1.64c2.38,1.78,4.32,3.19,6.11,4.43,1.23.85,2.47,1.68,3.71,2.52,4.89,3.3,9.94,6.71,14.22,10.86a169.33,169.33,0,0,1,12,15.32c1.25,1.73,2.51,3.46,3.78,5.16,4.33,5.82,8.89,11.46,12.79,16.22,2.85,3.48,5.84,6.93,8.72,10.28q2.46,2.84,4.89,5.69c1.85,2.18,4,4.66,5.9,7.18l.19.25a106.71,106.71,0,0,1,9,13,114.16,114.16,0,0,1,5.06,14.63c1.11,4.86,2,9.5,2.72,14.21.36,2.35.68,4.71,1,7.07.42,3,.85,6.15,1.34,9.21.54,3.41,1.14,6.88,1.73,10.23,1.26,7.28,2.57,14.8,3.38,22.27.2,4.42,0,8.77-.18,12.45-.39,3.36-.79,6.39-1.21,9.27-.29,1.94-.7,4-1.33,6.61l0,.13c-1.33,4.51-2.71,9.16-4,13.77-1.11,4-2.09,8.16-3,12.16-.37,1.57-.74,3.13-1.12,4.7l-.82,2.93c-1.14,4.06-2.32,8.27-3.25,12.43s-1.84,8.75-2.72,13.59-1.5,9.44-1.87,13.68c-.3,3.52-.59,7.31-.89,11.6l-.09,1.2a43.83,43.83,0,0,0-.17,5.69c.25,4.41.56,9.9,3.54,14,.91,1.24,2.79,3.31,5.2,3.31a4.78,4.78,0,0,0,2.64-.85c2.82-1.86,4.18-4.84,5.5-7.71l.18-.37.1-.23-.15.27-.07.14,0-.1-.06.1c1.93-4,3.83-8.3,5.79-13.21a95.7,95.7,0,0,0,3.15-9.88l.38-1.36c2.54-9,4.27-18.37,5.8-26.66.94-5.09,1.68-10.3,2.39-15.35.37-2.65.75-5.3,1.15-7.95,1.11-7.26,2.74-14.37,4.31-21.26q.36-1.55.73-3.11c1.13-4.86,2.3-9.88,3-14.88.56-4.1,1.13-8.48,1.43-13,0-.51.07-1,.12-1.52l0-.27h0a39.05,39.05,0,0,0,7,4.95,37,37,0,0,0,5.45,2.3,61.83,61.83,0,0,0,8,2.31l1.53.32c1.14.25,2.29.49,3.45.69,3.46.61,6.88,1.13,10.15,1.53q2.37.3,4.74.56l2.17.29c1.4.19,2.86.39,4.28.46h.24c3.52,0,5.82-4.07,7.13-7.48a28.14,28.14,0,0,0,1.78-8.83q0-.54,0-1.08h0c3.93,2,7.82,3.84,12.13,5.9a141.12,141.12,0,0,0,19.15,7.66l1.63.51a30,30,0,0,0,9,1.9c.4,0,.8,0,1.2-.05a18,18,0,0,0,6.93-2.55,22.63,22.63,0,0,0,5.1-4.67l.84-.93a14,14,0,0,0,.92-1.12l.23-.33h0l.08.82.46,4.77c.13,1.32.38,2.67.63,4,.13.65.25,1.3.36,1.94.2,1.17.52,2.36.83,3.51.15.56.3,1.11.44,1.66.69,2.82,1.54,5.48,2.45,8.32,2,6.11,3.82,12.41,5.52,18.71l.05.2a190.91,190.91,0,0,1,4.27,20.39c.89,6.67,1.68,13.47,2.45,20l.41,3.49c1.84,15.67,4.35,31,7.47,45.5,1.12,5.25,2.07,10.13,2.9,14.92.75,4.3,1.21,8.63,1.54,11.92.16,2.75.3,5.23.31,7.77,0,2.79-.05,5.74-.22,9.55-.58,6.31-1.19,11.87-1.86,17a164.33,164.33,0,0,1-3,16.42,169.56,169.56,0,0,1-7.33,20.25c-1.82,3.16-3.39,5.73-5,8.09s-3.09,4.48-4.63,6.63l-1.74,2.43c-2.77,3.9-5,7.21-6.9,10.43a97.39,97.39,0,0,0-8,18,225.61,225.61,0,0,0-7.3,26.42c-2,9.22-2.75,18.65-3.46,27.77a36.82,36.82,0,0,0-.12,4.83l.08,1.48c.19,3.33.38,6.78.74,10.16.37,3.56.83,7.7,1.59,11.8a90,90,0,0,0,2.16,9.39v0a48.22,48.22,0,0,0,1.69,4.78c.82,2,1.64,3.91,2.5,5.85q.49,1.11,1,2.22v0c1.13,2.47,2.32,4.93,3.47,7.3,1.6,3.3,3.16,6.61,4.71,9.93,2.25,4.77,4.57,9.71,7,14.51a200.3,200.3,0,0,0,12.18,20.76c1.64,2.49,3.46,4.93,5.21,7.29l1.53,2.06.75,1c1.75,2.39,3.57,4.86,5.54,7.09a126.48,126.48,0,0,0,10.87,11.07,69.92,69.92,0,0,0,8.27,6.33c2.11,1.37,4.36,2.55,6.54,3.69l1,.53a103.45,103.45,0,0,0,23.15,8.38l2.44.62c9.08,2.3,18.47,4.68,27.93,5,.68,0,1.36,0,2,0,3.58,0,7.23-.3,10.75-.6l2.43-.2,1-.08c1.77-.14,3.54-.28,5.31-.46l.19,0,3.79-.39a59.83,59.83,0,0,0,12.75-3.14c4.48-1.51,9.15-3.19,13.91-5,2.07-.79,4.29-1.69,6.77-2.76l1.19-.51a37.53,37.53,0,0,0,5.72-2.82,13.33,13.33,0,0,0,4.5-6.56,34.09,34.09,0,0,0,0-21.63l-2-4a6.88,6.88,0,0,0-5.4-3.53,25.42,25.42,0,0,0-4.28,1l-.61.18c-1.68.49-3.47,1-5.48,1.66-3.26,1-6.74,2.12-10.27,3.16a97.45,97.45,0,0,1-16.81,3.79c-2.51.29-5.09.43-7.57.56l-3,.17-1.86.12c-3.2.21-6.5.42-9.76.43h-.34a81.21,81.21,0,0,1-8.85-.42,85.18,85.18,0,0,1-9-1.65l-.9-.2-2.71-.61c-4-1.79-8.1-3.87-12.53-6.37a97.47,97.47,0,0,1-20.43-15.3c-7.36-7.94-13.27-16.76-18.07-24.34-2.17-3.43-4.16-7-6.07-10.54l-.71-1.29-.76-1.56c-1.39-2.85-2.82-5.8-4-8.78l-1.41-3.5c-1.52-3.74-3.08-7.6-4.43-11.47-1.63-4.7-3.51-10.16-5.19-15.59-1.51-4.89-3-9.9-4.3-14.61a142.27,142.27,0,0,1-3.73-18.95c-.08-1.53-.1-3.07-.08-4.56.12-.79.27-1.59.44-2.39a160.68,160.68,0,0,1,6.68-17.32c.7-1.62,1.4-3.25,2.09-4.88a16.71,16.71,0,0,0,1.09-7.25c.92-1.4,1.71-2.65,2.43-3.82,2.17-3.54,4.09-6.89,5.89-10.25a91,91,0,0,0,5.82-13.68c1.23-3.6,2.34-7.23,3.43-10.75.34-1.13.64-2.3.93-3.43.14-.56.29-1.12.44-1.68l0-.16c.84-3.15,1.71-6.41,2.3-9.64a273.89,273.89,0,0,0,3.35-27.69l.23-2.91a170.73,170.73,0,0,0,.82-19.3,203.86,203.86,0,0,0-2.55-28.31c-1.12-6.52-2.74-13.06-4.31-19.39l-.48-1.93c-2-8.28-3.55-15.21-4.72-21.81l-.45-2.52c-1.17-6.56-2.38-13.35-3.38-20q-.92-6.14-1.78-12.29l-.15-1.06c-.4-2.83-.81-5.75-1.39-8.59-2-9.68-4-17.67-6.21-25.13-2.05-6.85-4.39-14-7.14-21.91-.5-1.45-1-3.05-1.55-5-.09-.47-.19-.93-.29-1.4-.28-1.33-.56-2.71-.71-4.06l-.3-2.67-.27-2.43,0-.29c-.12-2.4-.25-4.88-.2-7.32.07-3.08.21-6.28.42-9.77.26-2.71.54-5.41.82-8.11.5-4.82,1-9.8,1.38-14.71s.56-9,.64-12.91c.05-2.65,0-5.34,0-8,0-1,0-2,0-3.07l-.05-6.2q-.08-8.25-.14-16.49c0-5,0-9.91.09-14.94l0-.21.35-3.8c.71-7.57,1.32-14.39,1.57-21.28.48-12.62.82-25-.38-37.19-.37-3.76-3.1-10.48-7.22-10.48a4.89,4.89,0,0,0-2.49.75,11.21,11.21,0,0,0-3.78,5.51l-.54,2.11-.55,2.11a31.32,31.32,0,0,0-.37,4c-.42,5.05-.61,10.21-.79,15.19q-.09,2.57-.2,5.13c-.2,4.73-.5,9.84-.93,15.63q-.4,4-.82,8c-.93,8.89-1.89,18.09-2.45,27.17-.24,3.93-.46,7.87-.67,11.8-.29,5.25-.58,10.69-.94,16-.82,8.75-1.46,16-2,22.81a130,130,0,0,1-1.74,13.2c-.3.93-.61,1.79-.95,2.62-.21.32-.43.63-.65.94a15,15,0,0,1-2.51,1.63,11.44,11.44,0,0,1-4-.23c-.72-.16-1.43-.37-2.14-.57l-.66-.19c-1-.29-2-.59-3-.9-6-2.06-12.19-4.5-18.9-7.45-2-.9-4.1-1.77-6.16-2.64-4.57-1.93-9.29-3.94-13.77-6.21-4.14-2.09-8.25-4.4-12.22-6.63-2.44-1.37-4.87-2.74-7.33-4.07-5.71-3.09-12.28-6.93-17.82-12l-2-1.81-.79-.73-1.06-1.13-1.06-1.13c-.87-.93-1.68-2-2.46-2.94-.39-.5-.79-1-1.19-1.48-1.55-1.89-3.07-3.87-4.54-5.79-.73-1-1.47-1.93-2.21-2.88a113.45,113.45,0,0,0-8.73-10.07c-2.87-2.91-5.7-5.67-8.68-8.43-2.43-2.26-5-4.42-7.52-6.51l-1.14-.95-.33-.28a15.21,15.21,0,0,0-4.75-3.08l-.62-.21a7.56,7.56,0,0,0-2.43-.57,3.86,3.86,0,0,0-1.75.45l-.43-.52-.43-.52c-4-4.77-8.27-9.36-12.43-13.8l-2.31-2.46c-4.86-5.2-9.67-10.61-14.31-15.84l-1.14-1.29c-5.19-5.85-10.29-11.83-14.6-16.9a96.07,96.07,0,0,0-9.32-9.63,56.51,56.51,0,0,0-9-6.2l-2.79-1.65c-2.19-1.29-4.46-2.63-6.64-4-4.12-2.63-7.28-4.7-10.25-6.71-2.54-1.72-5-3.57-7.46-5.37l-1.45-1.07c-1.06-.79-2.08-1.68-3.06-2.55-.5-.45-1-.89-1.52-1.32-1.12-.95-2.26-2-3.7-3.36-3-2.89-6.09-5.89-8.93-8.69A157.8,157.8,0,0,0,899.23,807q-2.23-1.68-4.45-3.38c-3.61-2.79-7.47-5.74-11.45-8.5s-8.73-5.7-14.11-8.73a3.11,3.11,0,0,0-1.52-.44c-2.53,0-3.91,4.09-4.28,6.25Zm315.05,593c-.26-1.33-.48-2.66-.67-4,.39,1.51.79,3,1.2,4.52.27,1,.54,2,.8,3-.48-1.16-.93-2.34-1.33-3.52Z" transform="translate(-436.53 -209.34)"/><path class="cls-1" d="M1180.69,1350.65c-2.51,5.6-4.83,11.21-6.89,17-1.84,5.17-3.6,10.37-5.45,15.54-.87,2.44-1.71,4.89-2.57,7.33s-1.42,4.73-2.12,7.08c-.85,2.83-1.48,5.77-2.1,8.66v0l0,.17-.11.52q-.83,3.83-1.64,7.66c-1.3,6.17-2.48,12.54-3.61,19.49-.55,3.42-1.22,6.91-1.82,10-.45,2.35-1,4.69-1.57,6.75-1.73,5.52-3.62,10.93-5.09,15-.55,1.55-1.09,3.11-1.62,4.68h0c-1.07,3.2-2.1,6.4-3.18,9.59-1.8,5.3-3.85,10.5-5.75,15.76-1.73,4.79-3.24,9.65-5,14.44q-1.51,4.21-3,8.44c-.88,2.53-1.56,5.13-2.31,7.71-.85,2.94-1.58,5.94-2.2,9h0c-.57,2.78-1.09,5.7-1.52,8.7-1.77,12.07-2.45,24.37-3,37l-.06,1.26c-.12,2.57-.25,5.14-.39,7.71-.42,4.44-.92,8.43-1.52,12.21-.64,4-1.48,8.17-2.55,12.68-.36,1.3-.77,2.69-1.22,4-.7,2.11-1.54,4.2-2.28,6-1.09,2.68-2.39,5.36-3.64,7.87-2.62,4.9-5.15,9.16-7.71,13l-3.6,5.46c-1.74,2.65-3.49,5.31-5.26,7.94a57.79,57.79,0,0,1-4.52,5.65l-.76.88c-1.07,1.23-2.16,2.44-3.25,3.65l-1.49,1.66-1.14,1.28c-3.18,3.57-6.46,7.26-9.8,10.79l-4.06,4.27c-1.61,1.63-3.08,3.1-4.69,4.45-2.3,1.93-4.64,3.75-6.63,5.27a74.7,74.7,0,0,1-11.18,7.26,73.23,73.23,0,0,1-10.67,4.17c-2.77.82-5.54,1.6-8.32,2.37-8.11,2.27-16.5,4.62-24.41,8-8.64,3.65-17.15,8.75-27.61,16.52a324.74,324.74,0,0,1-27.29,18.22c-4.18,2.49-8.64,4.64-13,6.71l-1.63.78c-4.91,2.37-9.9,4.54-14.83,6.46-2.43,1-5,1.8-7.41,2.62l-3.41,1.15c-2.2.76-4.38,1.55-6.56,2.34L896,1775c-1.77.55-3.68,1.12-5.64,1.59-2.53.6-5.25,1.16-8.58,1.79-4.67.88-9.67,1.67-15.73,2.5-5,.68-10.09,1.05-15.28,1.41-1.47.1-3,.19-4.64.19-1,0-1.9,0-2.77-.11s-1.51-.17-2.26-.27l-.86-.12a13.73,13.73,0,0,1-1.57-.34,9.79,9.79,0,0,0-2.07-.38h-.11a5.68,5.68,0,0,0-3.41,1.58,9.67,9.67,0,0,1-1.29.89,17,17,0,0,1-2.27,1.07,19.4,19.4,0,0,1-4.29.5h-.12a18.22,18.22,0,0,1-4.71-.78c-2.6-.89-5.34-2-8.88-3.47l-1.42-.59c-1.05-.44-2.14-.89-3.19-1.39l-.58-.29a14,14,0,0,0-1.7-.76l-.66-.24a8.65,8.65,0,0,0-2-.58l-.27,0a6,6,0,0,0-2.6.85l-.79.82-.79.81a14.67,14.67,0,0,0-2.05,5.52l0,.13a19.19,19.19,0,0,0,2.06,12.93c1.73,2.94,5.31,4.32,8.25,5.74,2.69,1.3,5.44,2.52,8.25,3.56,4.25,1.57,8.5,3.21,13,3.58,2.68.22,4.91-.55,7.43-1.37a12.91,12.91,0,0,0,1.81-.78c.46.26.91.52,1.38.76a18.91,18.91,0,0,0,5.34,1.8,37.17,37.17,0,0,0,7.39.46c3.78-.09,7.57-.28,11.34-.68h0c1.4-.14,2.77-.32,4.08-.51,4.95-.74,10.27-1.56,15.62-2.57,2.73-.52,5.64-1.07,8.5-1.75,2.66-.63,5.26-1.43,7.77-2.21,3.9-1.21,7.81-2.63,11.59-4,2.06-.75,4.13-1.5,6.2-2.22,5-1.75,9.91-3.73,15-6.06,4.54-2.09,9-4.47,13.4-6.77l1-.55c3.78-2,7.44-4.38,11-6.68l2.33-1.51,3.43-2.19c3.38-2.14,6.86-4.36,10.16-6.71,1.34-1,2.66-1.93,4-2.9,2.94-2.16,6-4.39,9.11-6.37l.49-.31a108.16,108.16,0,0,1,13.72-7.82c3.05-1.37,5.56-2.43,7.9-3.34,1.89-.74,3.79-1.38,5.72-2,3.67-1,7.41-2,11-3l4.57-1.21c2.7-.73,5.55-1.58,8.95-2.7a82.21,82.21,0,0,0,14.07-5.65,84.78,84.78,0,0,0,9.39-6.27c2.47-1.82,4.65-3.5,6.67-5.12a60.62,60.62,0,0,0,5.55-5.25l1.8-1.86c1.87-1.93,3.8-3.92,5.66-5.92,3.62-3.88,7.16-7.94,10.59-11.87l.47-.54,1.64-1.87a85.35,85.35,0,0,0,8.28-10.44c6.12-9.64,12.52-20,17.67-31l.86-1.84a100.66,100.66,0,0,0,5.45-13.18,174.51,174.51,0,0,0,4.77-20c1.16-6.41,1.68-13,2.19-19.43v-.16c.35-4.36.46-8.8.57-13.09l.07-2.9c.21-7.84.56-15.59,1-23.06.25-2.61.56-5.68,1-8.7.55-3.64,1.21-7.14,1.83-10.24.11-.55.21-1.11.33-1.66-.17.67-.35,1.34-.53,2l-.15.57.11-.42c0,.14-.07.28-.11.42l.44-1.75c.41-1.64.83-3.33,1.35-5q1.32-4.19,2.67-8.37c.29-.9.58-1.81.87-2.72h0c1.32-4.22,2.57-8.47,3.91-12.68,1.74-5.46,3.52-10.9,5.05-16.43,1.38-5,2.73-10,4.21-15q1.29-4.37,2.58-8.75l.09-.3h0c.77-2.65,1.47-5.37,2.14-8l.55-2.13c1.16-4.5,1.89-9.17,2.59-13.7l.38-2.43c.43-2.71.76-5.48,1.07-8.15.28-2.36.56-4.79.92-7.18s.69-4.57,1.05-6.85q.8-5.1,1.64-10.19c.4-2.39.93-4.76,1.4-7.14q.59-2.29,1.2-4.57c.49-1.89,1.14-3.74,1.73-5.6,1.14-3.6,2.38-7.16,3.56-10.74q2.11-6.39,4.3-12.75c1.46-4.21,3.38-8.3,5.2-12.36a10.26,10.26,0,0,0,.57-3.5,8.41,8.41,0,0,0-1.21-4.79,2.22,2.22,0,0,0-1.75-1.14c-1.32,0-2,1.45-2.39,2.43Zm-166,393.52h0l-.29.09.24-.08Z" transform="translate(-436.53 -209.34)"/><path class="cls-1" d="M495.59,1245.79a7.76,7.76,0,0,0-2.63,3.85,17.69,17.69,0,0,0-.76,9.73c1.36,5.56,2.79,11.09,4.25,16.63.35,1.34.69,2.68,1,4h0c.49,1.92,1,4,1.61,6q3.33,11.37,6.71,22.72c1.81,6,4,12.34,6.8,19.82,1.9,5,3.47,10.2,5,15.22q.69,2.26,1.38,4.53c.86,2.79,1.75,5.57,2.65,8.34,1.3,4,2.64,8.23,3.86,12.37l1.3,4.41c1.61,5.5,3.28,11.19,5.06,16.74,1.24,3.84,2.68,7.67,4.08,11.37,1,2.6,2,5.29,2.93,8,2.22,6.35,4.34,13.11,6.87,21.94,1,3.54,2.08,6.76,3.25,9.86,1.34,3.51,2.88,6.86,4.61,10.57A201.15,201.15,0,0,0,566,1474,159.16,159.16,0,0,0,576.44,1488l2.36,3c1.64,2.07,3.26,4.16,4.88,6.25,2.44,3.15,5,6.41,7.52,9.55l2.89,3.54c3.67,4.49,7.46,9.14,11.12,13.77q3.68,4.68,7.32,9.38,3.16,4.07,6.34,8.12c3.43,4.37,7.09,8.69,10.63,12.86l2.73,3.22c6.16,7.3,11.38,13,16.42,18s10.59,10.37,16.24,15.6a155.14,155.14,0,0,0,12.71,10.2l3.48,2.61,2,1.54c2.14,1.63,4.36,3.32,6.58,4.92a34.81,34.81,0,0,0,8.41,4.7c2.47.89,5.14,1.79,8.4,2.84,1.6.51,3.3,1,5.21,1.51a23.26,23.26,0,0,0,6.12.71c1.52,0,3-.09,4.59-.2,3.43-.23,7-.46,10.47-.61l1.9-.08c3.1-.13,6.3-.27,9.46-.27a73,73,0,0,1,8.82.48l5.21.62c5.23.61,10.65,1.24,15.93,2.15,2.75.47,5.48,1,8.22,1.49,4.2.78,8.54,1.59,12.84,2.24,4.8.73,9.59,1.83,14.21,2.9,1.77.41,3.54.82,5.32,1.21a144,144,0,0,0,20.74,3.3c6.54.45,14.14,1,21.65,1.39,1.38.08,2.82.12,4.28.12,1.83,0,3.71-.06,5.59-.19l2.39-.14c2.66-.16,5.41-.32,8.09-.65l1.81-.21c2.92-.34,5.93-.7,8.85-1.27s6.25-1.28,10.06-2.11c7-1.52,13.88-3.05,20.54-5.16l2.22-.7c3.56-1.12,7.23-2.27,10.79-3.58s7.18-2.75,11-4.37c2.46-1.05,4.93-2.18,7.32-3.27,3.64-1.66,7.41-3.39,11.22-4.86,2.5-1,5.07-1.87,7.55-2.75,3.87-1.36,7.86-2.77,11.67-4.43,3.18-1.39,6.34-2.81,9.51-4.23,3.47-1.56,7.06-3.17,10.61-4.71,4-1.73,8.11-3.17,12.12-4.57,2.21-.77,4.5-1.57,6.73-2.41,6-2.26,12.84-4.81,19.34-7.75l4.08-1.84q8.31-3.76,16.62-7.5c9.91-4.45,19.73-9.48,29.23-14.34q4.87-2.49,9.76-5c2.71-1.37,5.43-2.72,8.16-4.07,3.66-1.81,7.45-3.69,11.15-5.59,2.06-1.06,4.08-2.27,6.06-3.46l3.14-1.9c2.9-1.73,5.57-3.87,8.31-5.84,1.91-1.37,3.65-3.1,5.44-4.62.36-.31.72-.63,1.07-1v0c.77-.72,1.53-1.47,2.27-2.23l1.31-1.3,2-1.93c3.07-3,6.25-6.15,9.6-9a15.08,15.08,0,0,0,5.1-7.44,36.74,36.74,0,0,0,1.47-18.83,26,26,0,0,0-3.72-10.19l-2.16-2.25h0l-.68-.7a5.62,5.62,0,0,0-6.56,0c-1.48.59-2.95,1.19-4.41,1.81h0a79.88,79.88,0,0,0-13,6.75c-2.87,1.9-5.94,3.93-9,5.9-2.74,1.75-5.75,3.55-9.46,5.65-5.46,3.09-11.22,5.86-16.79,8.54l-2.57,1.23c-6.63,3.2-13.15,6.57-19.26,9.73-10.47,5.43-21.36,10.43-31.88,15.26l-6.21,2.86-4.28,2c-4.73,2.21-9.63,4.49-14.56,6.47-2.69,1.08-5.39,2.12-8.09,3.16-4.12,1.59-8.37,3.22-12.5,5-4.53,1.91-9,4.15-13.27,6.32q-2.54,1.28-5.08,2.54l-1.9.95c-2.52,1.25-5.11,2.54-7.73,3.68-3.82,1.67-7.36,3.18-10.82,4.61-5.49,2.27-11.33,5-18.39,8.69a214.08,214.08,0,0,1-19.8,9.21c-3.34,1.32-6.93,2.65-11,4.05-12.29,3.71-25.54,7.3-39.25,8.48l-.47,0c-3.27.29-6.65.58-10,.58h-.21c-3.22,0-6.51-.08-10.05-.25-2.26-.11-4.53-.18-6.8-.25-4.72-.16-9.6-.32-14.37-.77-7.7-.73-15.14-2.08-21.41-3.29-5.08-1-10.29-1.59-15.32-2.16l-5.35-.63c-4-.5-8-1.18-11.83-1.84-3-.52-6.16-1.05-9.25-1.49s-5.92-.93-8.8-1.43c-3.68-.63-7.48-1.28-11.25-1.75l-.12,0c-2.32-.29-4.65-.5-7-.65h0c-2.08-.14-4.3-.25-7.21-.36-1.11,0-2.21-.06-3.32-.06q-1.39,0-2.78,0l-1.95,0c-1.13,0-2.27.06-3.4.06a30.85,30.85,0,0,1-7.29-.73c-2.34-.8-4.73-1.68-7.32-2.67a39.33,39.33,0,0,1-7.77-3.85l-.36-.23c-1.31-.87-2.63-1.73-3.92-2.62l-1.91-1.3c-4.66-3.19-9.47-6.49-14.23-9.68a128.77,128.77,0,0,1-12.93-10.38l-1.25-1.09c-5.27-4.6-10-8.88-14.42-13.08-9.55-10-17.74-19.24-25-28.21-5-6.11-10.09-12.25-15.06-18.18-4.18-5-8.5-10.14-12.69-15.26q-2.57-3.15-5.17-6.27c-4.62-5.59-9.4-11.37-13.89-17.21-2.28-3-4.34-6.2-6.33-9.33L569.4,1435c-2.25-3.48-4.18-7.08-6.12-10.77-1.25-2.83-2.46-5.61-3.52-8.45-1.22-3.29-2.38-6.64-3.5-9.89-2.3-6.64-4.92-13.31-7.78-19.82-2.39-5.44-5.14-11.89-7.35-18.48l-.09-.26c-2.29-6.8-4.66-13.82-7.18-20.67-2.46-6.68-4.85-13.22-7.11-19.78-1.41-4.09-3.11-8.13-4.75-12-.82-1.95-1.63-3.89-2.42-5.85-2.75-6.85-5-13.7-7.41-21.3-2.2-6.92-4-13.11-5.58-18.93l-1.85-6.92h0l-1.16-4.33q-.61-2.47-1.21-4.94a13.45,13.45,0,0,0-1.93-5.27,4.17,4.17,0,0,0-3.18-2,3.3,3.3,0,0,0-1.68.5Z" transform="translate(-436.53 -209.34)"/><path class="cls-1" d="M826.3,1449.95a45.39,45.39,0,0,0-4.55,4.72c-1,1.18-1.82,2.42-2.62,3.58-1.17,1.72-2.22,3.57-3.24,5.37-.31.55-.62,1.1-.94,1.64l-3.29,5.73q-2.61,4.55-5.23,9.08c-1,1.64-2,3.27-3.08,4.83-.5.76-1,1.51-1.5,2.27-1.07,1.65-2.3,3.24-3.48,4.78-.52.67-1,1.34-1.54,2-1.21,1.61-2.52,3.2-3.78,4.74l-1.5,1.84c-1.23,1.52-2.44,3.07-3.64,4.63l-1.44,1.85c-4.37,5.57-7.52,12-10.57,18.3l-.83,1.69a147.7,147.7,0,0,1-8.22,14.25,92.89,92.89,0,0,1-10.18,12.43,159.25,159.25,0,0,1-15.73,13.5c-2.45,1.91-2.73,6-2.22,8.89a9.56,9.56,0,0,0,.31,1.43,8.84,8.84,0,0,0,.93,2c.7,1,2,1.92,3.19,1l2.84-2.21h0a152.67,152.67,0,0,0,14.54-12.7c2.78-2.81,5.42-5.73,7.84-8.68a108.13,108.13,0,0,0,7.06-9.88c1.79-2.77,3.45-5.7,5.06-8.52,3.28-5.75,6.66-11.7,11.3-16.68l1.85-2c1.13-1.23,2.27-2.46,3.41-3.66l1.66-1.72c1.29-1.32,2.62-2.7,3.86-4.11.54-.61,1.09-1.21,1.63-1.82,1.25-1.37,2.54-2.79,3.66-4.29.53-.71,1.07-1.41,1.62-2.11,1.11-1.43,2.25-2.9,3.27-4.41l3-4.5c1.95-2.89,3.89-5.79,5.87-8.66l1.14-1.65c1.13-1.63,2.26-3.26,3.37-4.9a68.88,68.88,0,0,1,5.49-7.38,14.81,14.81,0,0,0,2.11-5.78,23.14,23.14,0,0,0,0-7.45,14.77,14.77,0,0,0-2.11-5.78c-.86-1.17-2.32-2.34-3.69-2.34a2.37,2.37,0,0,0-1.64.67Z" transform="translate(-436.53 -209.34)"/><path class="cls-1" d="M611.18,945.85a4.09,4.09,0,0,0-.28,3.61c2.34,4.94,5.09,9.79,7.74,14.49l.57,1c2.8,5,5.76,10.24,8.54,15.57l2.73,6.2c.65,1.47,1.22,3,1.78,4.51q.39,1.07.8,2.13l1.08,2.79c1.23,3.2,2.5,6.51,3.81,9.74,1.43,3.51,3.12,7,4.75,10.35l.85,1.76c1.63,3.37,3.34,6.78,5,10.07l1.12,2.22v0l.18.36.47.94h0c2.35,4.71,4.33,8.76,6.18,13,1.77,4.07,3.47,8.25,5.13,12.29l1.67,4.09c1.66,4,3.57,8.06,5.42,11.95l1.18,2.48c2.42,5.13,4.83,10.39,7.37,16.08,2.8,6.25,5.72,12.57,8.55,18.68,1.84,4,3.68,7.95,5.5,11.93s3.48,8,5.11,11.95l1.24,3c2.61,6.3,5.17,11.9,7.81,17.13,5,9.92,10.21,20.17,15.52,30.38,4,7.73,9.45,17.88,15.66,27.81q3.32,5.3,6.57,10.65c3.6,5.87,7.31,11.93,11.12,17.81,1.25,1.92,2.55,3.84,3.81,5.7,1.61,2.37,3.27,4.82,4.82,7.29,1.16,1.84,2.3,3.7,3.45,5.56,1.65,2.68,3.35,5.45,5.08,8.13,4.05,6.28,8.39,12.52,12.57,18.55,2.13,3.07,4.26,6.14,6.37,9.23,6.35,9.31,13.07,18.63,20,27.68,3.14,4.12,6.38,8.38,10,12.33a142.7,142.7,0,0,0,14.48,13.91,35.28,35.28,0,0,0,7,4.6,39.42,39.42,0,0,0,5.75,2.12l1.48.46a34.75,34.75,0,0,0,5.62,1.26c2.55.38,5.19.54,7.74.69l2.18.13c3.24.21,7,.44,10.78.44,1.88,0,3.61-.05,5.29-.17,4.78-.31,9.48-.91,13.87-1.52h0l2.43-.34c3.23-.45,6.47-1,9.67-1.72q1.25-.27,2.5-.58h0a77.88,77.88,0,0,0,9.78-3.24,46.33,46.33,0,0,0,10.19-5.9,70.21,70.21,0,0,0,8-7.07c3.62-3.6,7.1-7.31,10.36-11,1.71-1.95,3.41-4,5.05-5.93l1.77-2.09c1.27-1.51,2.57-3.12,4.19-5.24l1.91-2.5,1.62-2.11.6-.76c.43-.53.86-1.08,1.24-1.64.78-1.16,1.57-2.31,2.36-3.46,2-2.84,4-5.79,5.75-8.81l4.94-8.46c.91-1.55,1.76-3.18,2.58-4.75.4-.76.8-1.52,1.21-2.28.86-1.61,1.69-3.22,2.52-4.84l.86-1.66c1.1-2.14,2.16-4.33,3.19-6.45l.17-.35a38.83,38.83,0,0,0,2.62-6.57l.06-.23a35.28,35.28,0,0,0,1.72-10.37,27.88,27.88,0,0,0-1.56-10.45c-.54-1.4-2-4.81-4.28-6.29a7.4,7.4,0,0,0-3.71-1.15,5.5,5.5,0,0,0-1.7.44l-.6.21a38.22,38.22,0,0,0-4,1.43l-1.09.47-1.09.47c-1.49.65-3,1.31-4.46,2l-3.66,1.63a8.69,8.69,0,0,0-2.94,4.29,22.23,22.23,0,0,0,0,14.13,9,9,0,0,0,2.76,4.18l-.84,1.36c-.43.69-.84,1.39-1.26,2.08-.89,1.49-1.81,3-2.82,4.46l-1.76,2.51c-2.52,3.59-5.12,7.31-7.94,10.78-.61.75-1.21,1.52-1.81,2.29-1.17,1.49-2.38,3-3.67,4.46l-3.21,3.55-3.21,3.55c-1.11,1.23-2.24,2.44-3.38,3.64a98.59,98.59,0,0,1-11,9.85,50,50,0,0,1-12.85,7,113,113,0,0,1-17,3c-4.17.5-9.11,1.06-14.12,1.33-1.71.09-3.48.14-5.25.14-1,0-1.92,0-2.88,0h0q-2.28-.06-4.56-.23c-3-.21-6-.37-9-.66h0a58.22,58.22,0,0,1-9.39-1.55,40.87,40.87,0,0,1-11.91-7.41c-2.09-1.81-4.14-3.66-6.26-5.64-6.28-6.81-12.11-14.21-17.75-21.37l-.79-1c-5.25-6.66-10.38-13.59-15.34-20.29q-2.38-3.22-4.77-6.43l-.16-.22c-3-4-6.07-8.16-9-12.34-2.18-3.14-4.33-6.37-6.42-9.5l-2.75-4.12c-3-4.43-6.11-8.85-9.14-13.13s-6.2-8.74-9.18-13.19l-4.19-6.21c-4.4-6.52-8.95-13.26-13.27-20-2-3.15-4-6.43-5.89-9.6-.84-1.41-1.68-2.81-2.53-4.21-2.76-4.54-5.41-9.16-7.89-13.5-3.87-6.76-8.34-14.64-12.48-22.49l-2.54-5.26c-3.75-7.77-7.63-15.82-11.77-23.56l-1.06-2c-2.14-4-4.36-8.16-6.48-12.27-.64-1.23-1.27-2.47-1.89-3.7-1.8-3.54-3.66-7.19-5.62-10.7-2.19-3.91-4.48-7.83-6.71-11.63l-1.45-2.48c-2.44-4.17-4.7-8.53-6.88-12.75l-.42-.81c-4.67-9-9.79-17.5-15.52-26.87-3.05-5-5.74-9.63-8.21-14.19-1.77-3.68-3.54-7.59-5.59-12.28a155.28,155.28,0,0,0-7-14.6c-2-3.47-4.1-6.93-6.15-10.27l-2.12-3.46c-2.69-4.43-5.21-9.22-7.24-13.07l-.32-.66c-.15-.31-.55-1-1.08-1a.93.93,0,0,0-.71.47Z" transform="translate(-436.53 -209.34)"/><path class="cls-1" d="M1182.28,1247.88l-1.84,2.54c-.74,1-1.49,2-2.22,3.07l-1.15,1.65a52.59,52.59,0,0,1-3.32,4.46c-7.43,7.42-13.79,16-19.94,24.31L1153,1285c-6.72,9.06-14,18.76-21.35,28.3-2.47,3.18-5.1,6.32-7.64,9.36l-2.56,3.06c-1,1.18-2.06,2.31-3.1,3.41l-1,1.1-2.28,2.43-2.27,2.43c-.81.75-1.62,1.5-2.42,2.25-2.7,2.52-5.48,5.11-8.36,7.5-10.54,8.72-20.64,14.67-30.91,18.2a74.76,74.76,0,0,1-17.77,3c-2.64.13-5.47.23-8.91.31-3,.07-6.16.11-9.36.11q-2.82,0-5.63,0l-11.69-.18c-7.52-.12-15.3-.25-23-.26h-.16a110.33,110.33,0,0,0-11.87.71c-2.93.31-5.89.91-8.75,1.49l-2.07.41-1.35.27c-2.08.41-4.23.84-6.36,1.19a44.2,44.2,0,0,1-7.27.66l-1.18,0a32.08,32.08,0,0,1-8.33-1.62l-1.16-.38c-1.61-.53-3.28-1.08-4.89-1.7l-2.08-.8c-1.83-.71-3.66-1.41-5.51-2.09l-2.11-.78c-1.79-.66-3.64-1.35-5.48-2l-1.64-.55c-3.41-1.13-6.94-2.3-10.32-3.71a40.49,40.49,0,0,1-4.22-2A57,57,0,0,1,898,1346l-7-6.8c-4-3.9-7.86-8-11.77-12l-1.46-1.51-5.1-5.65h0c-6.3-7-12.46-13.82-18.6-20.82a2.33,2.33,0,0,0-1.84-1.2c-1,0-1.86.86-2.51,2.55a10.92,10.92,0,0,0-.6,3.68c0,1.34.16,3.77,1.27,5q3.64,4.16,7.3,8.3,4.53,5.11,9.1,10.19c3.26,3.63,6.49,7.28,9.85,10.82,4.09,4.3,8.14,8.65,12.31,12.88l5.69,5.77h0l.64.65.65.66A68.67,68.67,0,0,0,912,1370.88c2.95,1.61,6.09,3,9.13,4.31l2.64,1.16c1.78.79,3.57,1.65,5.3,2.48l2.16,1c1.78.84,3.54,1.71,5.31,2.59l2.15,1.06c1.55.76,3.16,1.48,4.71,2.18l2.13,1a38.76,38.76,0,0,0,11.19,3.36,26,26,0,0,0,3.36.2,51.83,51.83,0,0,0,6.44-.48l1.13-.14c3.18-.41,6.37-.81,9.56-1.2a109.4,109.4,0,0,1,12.95-.68c4.35,0,8.78.18,13.06.35l2.05.08q6,.24,11.93.53c6.6.31,13.43.63,20.15.8,2.7.07,5.52.11,8.35.11,2.62,0,5.34,0,8.1-.09,13.16-.28,26.68-4.68,40.18-13.06a109.06,109.06,0,0,0,14.68-10.72l3.91-3.45,3.91-3.45c1.23-1.08,2.39-2.29,3.5-3.46l1.34-1.39q1.11-1.13,2.26-2.25c1.61-1.59,3.27-3.23,4.77-4.95l3-3.36c2.43-2.76,5-5.61,7.32-8.51l1.34-1.64c3.06-3.75,6.23-7.62,9.27-11.5l5.09-6.48c4.91-6.25,10-12.72,15.09-19l1.18-1.45c3-3.73,6.18-7.6,9.07-11.55,2.38-3.26,3.72-7.13,5-10.87q.38-1.09.76-2.17c1.12-3.1,2.22-6.14,3.46-9.19a16.21,16.21,0,0,0,0-11.12,6.9,6.9,0,0,0-2.31-3.37,2.89,2.89,0,0,0-1.47-.44,3.69,3.69,0,0,0-2.79,1.78Z" transform="translate(-436.53 -209.34)"/><path class="cls-2" d="M1522.46,255.79c-2.26.16-4.12.34-5.87.55-4.18.51-8.26,1.05-12.13,1.6l-2.61.36c-3.36.45-6.84.92-10.17,1.71-3.48.83-7.11,1.81-11.41,3.11a95.06,95.06,0,0,0-14,5.79A329.71,329.71,0,0,0,1433,288.75l-4.08,2.77c-4,2.68-8.07,5.46-12,8.33-5.12,3.73-10.36,7.64-16,11.94q-3.48,2.65-7,5.27c-8.16,6.11-16.59,12.44-24.41,19.24l-3.85,3.32c-3.58,3.07-7.29,6.25-10.75,9.55-4,3.78-8,7.7-12.18,12-7.22,7.78-13.54,14.88-19.29,21.7-4.45,5.27-8.72,10.82-12.86,16.19q-2.38,3.09-4.78,6.17c-3.46,4.44-6.57,8.46-9.51,12.73-2.54,3.69-4.84,7.67-7.07,11.52l-.13.23c-5.52,9.55-9.65,17-13.38,24.17l-1,2.11-1.1,2.27c-2.6,5.36-5,10.9-7.41,16.26l-.81,1.84c-2.47,5.58-5.05,11-8.18,17.39-5.6,11.46-11.47,23.86-16.55,36.84A364.08,364.08,0,0,0,1228.38,569q-.76,2.82-1.5,5.64c-1.13,4.3-2.3,8.75-3.59,13.08q-1,3.42-2.05,6.83c-1.11,3.68-2.21,7.37-3.29,11.06-1.54,6.25-2.55,11.06-3.28,15.57-.93,5.78-1.66,11.25-2.21,16.73-.3,6.7-.49,13.51-.68,20.1-.18,6.28-.37,12.77-.64,19.15-.1,2.4-.23,4.81-.35,7.21-.19,3.59-.38,7.3-.5,10.95-.23,7.28-.23,14.09,0,20.84-.1-1.58-.23-3.16-.36-4.74,0,.73.08,1.47.13,2.21.11,1.64.21,3.34.44,5l.54,3.89.44,3.15c.49,3.49,1.27,7,2,10.44.25,1.14.51,2.28.75,3.42,1.89,8.88,3.6,18.37,5.23,29a27,27,0,0,1-1.05,13.43,10.77,10.77,0,0,1-3.64,5.31,4.82,4.82,0,0,1-2.45.75c-3.89,0-6.3-6.21-6.91-10.12-1.44-9.23-2.71-16.23-4.13-22.73-.83-3.79-1.71-7.52-2.46-10.68l-.52-2.11c-.55-2.19-1.11-4.46-1.49-6.7l-.14-.84c-.52-3.06-1.06-6.22-1.39-9.37-.5-4.61-.87-9.37-1.14-14.54-.11-2-.16-4.05-.18-6.3l-.19.58q-.53,1.83-1,3.67c-.33,1.16-.71,2.33-1.08,3.46-.18.54-.36,1.08-.52,1.62s-.34,1.08-.5,1.62c-.34,1.14-.7,2.31-1.11,3.44l-.4,1.07a213.4,213.4,0,0,1-8.14,19.88c-2,4-4.12,8.34-6.46,12.62q-.89,1.63-1.75,3.26a50.06,50.06,0,0,1-.62,8.73,22.75,22.75,0,0,1-1.77,7.16c-.23.5-.44,1-.65,1.51a15.28,15.28,0,0,1-2.39,4.37l-.7.8c-2.45,2.82-2.5,2.87-6.51,3.92-1.59,3.3-3.28,6.72-5,10.17l.56-1.08c-2.06,4.07-4.38,8.29-6.9,12.55-.21.55-.43,1.11-.66,1.66A207.45,207.45,0,0,1,1139,824.7a131.33,131.33,0,0,1-9.18,14.52,51.35,51.35,0,0,1-5.95,6.91,9.59,9.59,0,0,1-4.68,2.92,3.22,3.22,0,0,1-.77.09,4.05,4.05,0,0,1-3.49-2.27,12.23,12.23,0,0,1-1.75-4.82,19.33,19.33,0,0,1,0-6.2c.55-3.21,1.6-5.3,3.1-6.21a4.59,4.59,0,0,0,.61-.37c2-2.11,3.83-4.39,5.63-6.59,1-1.27,2.07-2.54,3.14-3.79l.07-.08.07-.09,1.49-2.07a105.56,105.56,0,0,0,7.36-12.3l1.11-2.43,1.58-3.5c.55-1.23,1-2.52,1.48-3.77.21-.59.43-1.17.65-1.75,1.13-2.94,2-5.92,2.92-9,.51-2.32,1-4.66,1.41-7,.25-1.54.48-3.15.71-4.93-4.86-2.06-9.79-4.23-15.06-6.64l-4.55-2.07c-4.36-2-8.86-4-13.18-6.2-3.28-1.68-6.46-3.38-9.15-4.83l-1.58-.87c-1-.58-2.12-1.18-3.21-1.72a84.3,84.3,0,0,0-8.56-3.7c-6.68-2-13.52-4.1-20.91-6.47.36.14.73.25,1.1.37a184.54,184.54,0,0,0-18.84-4.79c-1.7-.33-3.39-.68-5.09-1-4.48-.93-9.12-1.9-13.71-2.47-3.6-.44-7.27-.79-10.82-1.13-2.86-.27-5.8-.55-8.71-.89-6.67-.75-13.41-1.65-19.75-2.51-10.84-1.47-22-1.67-32.73-1.86l-6.57-.13c-2.18,0-4.47-.07-6.83-.07-8.42,0-17,.32-25.23.62l-5.71.21c-16.49.58-29.86.88-42.06,1l-6.77.06c-3.93,0-7.86.08-11.79.08h-4.13a117.7,117.7,0,0,1-17.42-.9c-5-.76-10-2-14.74-3.2l-4.6-1.14a72.86,72.86,0,0,0-17.12-2.2h0c-1,0-2.07,0-3.08.08-6.54.36-13.57.84-20.7,1.94a113.64,113.64,0,0,0-16.23,4.16A68.3,68.3,0,0,0,747,730l-7.28,3.93-.28.15c-2.45,1.32-5,2.59-7.41,3.82-1.67.84-3.34,1.68-5,2.54l-.67.34c-3.86,2-7.85,4.06-11.64,6.32-3.41,2-6.84,4.16-10.16,6.22l-2.25,1.4-2.75,1.68a94.72,94.72,0,0,0-11,7.4c-3.75,3.09-7.2,6-10.56,9.05l-3.48,3.1c-2.48,2.22-5,4.43-7.43,6.68-3.11,2.86-6.06,5.79-8.77,8.54-5.21,5.63-9.33,10.41-13,15.06a92.46,92.46,0,0,0-8.27,13.2c-1.63,3.61-3.13,7.13-4.59,10.75-1,2.38-1.84,4.85-2.69,7.24-.46,1.29-.93,2.59-1.4,3.88-3.29,8.89-5.83,16.43-8,23.73-.61,2.46-1.2,4.92-1.8,7.38-2.21,9.16-4.5,18.63-7.37,27.77q-.53,1.69-1.07,3.38c-.87,2.75-1.78,5.59-2.62,8.4l.39.79.58,1.15a39.59,39.59,0,0,1,1.57,20.16,91.46,91.46,0,0,1-4.2,14.59c-.55,1.59-1.11,3.18-1.62,4.76l-.17.52-.17.52a41.06,41.06,0,0,1-.84,5.06c-.16.63-.31,1.27-.46,1.9a49.54,49.54,0,0,1-1.73,6,21.06,21.06,0,0,1-2.84,5.3,6.52,6.52,0,0,1-11.95,0c-.41-.71-.79-1.39-1.13-2.06-.79,1-1.56,1.92-2.33,2.88-7.23,9-14.46,18.31-21.5,27.57l-.13.17c-7.19,9.45-14.62,19.23-21.54,29.14l-.66.95c-3,4.32-6.15,8.79-8.91,13.36-3,5-6,10.18-8.84,15.25l1.33-2.62.73-1.45c-.29.53-.57,1.06-.84,1.6-.82,1.59-1.68,3.23-2.37,4.89-.35.82-.71,1.64-1.08,2.46-.72,1.61-1.46,3.27-2,4.95-.3.86-.62,1.72-.93,2.58-.63,1.71-1.28,3.48-1.77,5.25L513,1081.9c-.7,3.23-1.23,6.3-1.63,9.39-.05,2.29,0,4.64.07,7,.66,5.76,1.69,12,3.25,19.64l.09.42c1.26,6.17,2.56,12.54,3.56,18.88q.4,2.54.82,5.09c.82,5,1.66,10.21,2.23,15.33a243.24,243.24,0,0,1,1.66,25.77c0,3.59-.07,6.62-.28,9.52,0,.66-.09,1.35-.14,2a77.87,77.87,0,0,1-.81,8c-.55,3.21-1.39,6.33-2.2,9.35a89.68,89.68,0,0,1-3.38,10.37c-.12.29-.24.58-.36.87a28.64,28.64,0,0,1-.59,6.4c-.49,2.36-1.09,4.7-1.77,7-.41,1.35-.86,2.73-1.4,4.22q-1.46,4-2.9,8.09l-1.09,3.06c-1.12,3.19-2.25,6.38-3.41,9.55l1.85,6.92c1.55,5.82,3.38,12,5.58,18.93,2.42,7.61,4.65,14.46,7.41,21.3.79,2,1.6,3.91,2.42,5.85,1.64,3.9,3.34,7.94,4.75,12,2.26,6.55,4.66,13.09,7.11,19.78,2.52,6.85,4.89,13.88,7.18,20.67l.09.26c2.21,6.59,5,13,7.35,18.48,2.86,6.52,5.48,13.19,7.78,19.82,1.13,3.25,2.29,6.61,3.5,9.89,1.05,2.84,2.27,5.62,3.52,8.45,1.94,3.69,3.88,7.29,6.12,10.77l1.45,2.27c2,3.13,4.05,6.36,6.33,9.33,4.49,5.85,9.27,11.63,13.89,17.21q2.59,3.13,5.17,6.27c4.19,5.12,8.51,10.27,12.69,15.26,5,5.93,10.1,12.06,15.06,18.18,7.28,9,15.46,18.2,25,28.21,4.43,4.2,9.15,8.48,14.42,13.08l1.25,1.09a128.77,128.77,0,0,0,12.93,10.38c4.77,3.2,9.58,6.49,14.23,9.68l1.91,1.3c1.29.89,2.61,1.76,3.92,2.63l.36.23a39.33,39.33,0,0,0,7.77,3.85c2.59,1,5,1.87,7.32,2.67a30.85,30.85,0,0,0,7.29.73c1.13,0,2.27,0,3.4-.06l1.95,0q1.39,0,2.78,0c1.11,0,2.21,0,3.32.06,2.91.11,5.13.22,7.21.36a9.73,9.73,0,0,1-.37-1.62c-.51-2.91-.23-7,2.22-8.89a159.25,159.25,0,0,0,15.73-13.5,92.89,92.89,0,0,0,10.18-12.43,147.7,147.7,0,0,0,8.22-14.25l.83-1.69c3-6.25,6.2-12.72,10.57-18.3l1.44-1.85c1.21-1.55,2.41-3.1,3.64-4.62l1.5-1.84c1.26-1.54,2.57-3.12,3.78-4.74.5-.68,1-1.34,1.54-2,1.18-1.54,2.41-3.12,3.48-4.78.49-.76,1-1.51,1.5-2.27,1-1.57,2.13-3.19,3.08-4.83q2.64-4.53,5.23-9.08l3.29-5.73c.32-.54.63-1.09.94-1.64,1-1.79,2.07-3.65,3.24-5.37.8-1.16,1.66-2.39,2.62-3.58a45.39,45.39,0,0,1,4.55-4.72,2.37,2.37,0,0,1,1.64-.67c1.36,0,2.83,1.18,3.69,2.34a14.77,14.77,0,0,1,2.11,5.78,23.14,23.14,0,0,1,0,7.45,14.81,14.81,0,0,1-2.11,5.78,68.88,68.88,0,0,0-5.49,7.38c-1.11,1.64-2.24,3.27-3.37,4.9l-1.14,1.65c-2,2.87-3.92,5.76-5.87,8.66l-3,4.5c-1,1.51-2.16,3-3.27,4.41-.54.7-1.09,1.41-1.62,2.11-1.12,1.5-2.41,2.92-3.66,4.29-.55.61-1.1,1.21-1.63,1.82-1.23,1.41-2.57,2.79-3.86,4.11L797,1516.2c-1.15,1.21-2.28,2.44-3.41,3.66l-1.85,2c-4.63,5-8,10.92-11.3,16.68-1.61,2.82-3.27,5.74-5.06,8.52a108.13,108.13,0,0,1-7.06,9.88c-2.42,3-5.05,5.88-7.84,8.68a152.67,152.67,0,0,1-14.54,12.7l.21,0c3.77.47,7.57,1.12,11.25,1.75,2.88.49,5.86,1,8.8,1.43s6.22,1,9.25,1.49c3.87.66,7.87,1.35,11.83,1.84l5.35.63c5,.58,10.24,1.18,15.32,2.16,6.27,1.21,13.7,2.55,21.41,3.29,4.77.45,9.64.61,14.37.77,2.27.07,4.54.15,6.8.25,3.54.16,6.83.25,10.05.25h.21c3.33,0,6.71-.3,10-.58l.47,0c13.71-1.18,27-4.77,39.25-8.48,4-1.41,7.63-2.73,11-4.05a214.08,214.08,0,0,0,19.8-9.21c7.06-3.66,12.9-6.42,18.39-8.69,3.46-1.43,7-2.94,10.82-4.61,2.61-1.14,5.21-2.43,7.73-3.68l1.9-.95q2.55-1.25,5.08-2.54c4.3-2.17,8.74-4.41,13.27-6.32,4.13-1.74,8.39-3.38,12.5-5,2.7-1,5.4-2.08,8.09-3.16,4.93-2,9.83-4.26,14.56-6.47l4.28-2,6.21-2.86c10.53-4.83,21.41-9.82,31.88-15.26,6.11-3.17,12.63-6.53,19.26-9.73l2.57-1.23c5.57-2.68,11.32-5.44,16.79-8.54,3.72-2.1,6.73-3.89,9.46-5.65,3.07-2,6.14-4,9-5.9a79.88,79.88,0,0,1,13-6.75c.53-1.57,1.06-3.13,1.62-4.68,1.46-4.09,3.36-9.5,5.09-15,.53-2.07,1.13-4.4,1.57-6.75.59-3.08,1.27-6.57,1.82-10,1.13-6.95,2.3-13.32,3.61-19.49q.81-3.83,1.64-7.66l.11-.52,0-.17a90,90,0,0,1-2.16-9.39c-.75-4.1-1.21-8.24-1.59-11.8-.36-3.38-.55-6.83-.74-10.16l-.08-1.48a36.82,36.82,0,0,1,.12-4.83c.71-9.12,1.45-18.55,3.46-27.77a225.61,225.61,0,0,1,7.3-26.42,97.39,97.39,0,0,1,8-18c1.94-3.21,4.13-6.53,6.9-10.43l1.74-2.43c1.55-2.15,3.15-4.37,4.63-6.62s3.13-4.93,5-8.09a169.56,169.56,0,0,0,7.33-20.25,164.33,164.33,0,0,0,3-16.42c.67-5.14,1.28-10.7,1.86-17,.17-3.82.23-6.77.22-9.55,0-2.54-.15-5-.31-7.77-.32-3.29-.79-7.62-1.54-11.92-.83-4.8-1.78-9.68-2.9-14.92-3.12-14.53-5.64-29.84-7.47-45.5l-.41-3.49c-.77-6.57-1.56-13.37-2.45-20a190.91,190.91,0,0,0-4.27-20.39l-.05-.2c-1.7-6.31-3.56-12.61-5.52-18.71-.91-2.84-1.76-5.5-2.45-8.32-.14-.55-.29-1.11-.44-1.66-.31-1.15-.63-2.34-.83-3.51-.11-.64-.23-1.29-.36-1.94-.25-1.3-.5-2.65-.63-4l-.46-4.77-.08-.82a15.54,15.54,0,0,1-1.16,1.45l-.84.93a22.63,22.63,0,0,1-5.1,4.67,18,18,0,0,1-6.93,2.55c-.4,0-.8.05-1.2.05a30,30,0,0,1-9-1.9l-1.62-.51a141.12,141.12,0,0,1-19.15-7.66c-4.31-2.06-8.2-3.93-12.13-5.9a28.64,28.64,0,0,1-1.82,9.92c-1.31,3.41-3.61,7.48-7.13,7.48h-.24c-1.42-.07-2.87-.27-4.28-.46l-2.17-.29q-2.37-.26-4.74-.56c-3.27-.4-6.68-.92-10.15-1.53-1.16-.2-2.3-.45-3.45-.69l-1.53-.32a61.83,61.83,0,0,1-8-2.31,37,37,0,0,1-5.45-2.3,39.05,39.05,0,0,1-7-4.95c-.06.61-.1,1.2-.14,1.8-.3,4.5-.87,8.88-1.43,13-.68,5-1.86,10-3,14.88q-.37,1.56-.73,3.11c-1.57,6.88-3.2,14-4.31,21.26-.4,2.64-.78,5.3-1.15,7.95-.71,5-1.45,10.25-2.39,15.35-1.53,8.29-3.26,17.68-5.8,26.66l-.38,1.36a95.7,95.7,0,0,1-3.15,9.88c-2,4.91-3.86,9.23-5.79,13.21.13-.21.24-.44.35-.66l-.41.86c-1.31,2.88-2.67,5.85-5.5,7.71a4.78,4.78,0,0,1-2.64.85c-2.42,0-4.3-2.07-5.2-3.31-3-4.08-3.3-9.57-3.54-14a43.83,43.83,0,0,1,.17-5.69l.09-1.2c.29-4.29.58-8.09.89-11.6.36-4.24,1-8.71,1.87-13.68s1.76-9.29,2.72-13.59,2.11-8.37,3.25-12.43l.82-2.93c.38-1.57.75-3.13,1.13-4.7.95-4,1.93-8.13,3-12.16,1.27-4.61,2.66-9.27,4-13.77l0-.13c.63-2.64,1-4.68,1.33-6.61.43-2.88.82-5.91,1.21-9.27.2-3.68.38-8,.18-12.45-.8-7.47-2.11-15-3.37-22.27-.58-3.36-1.18-6.82-1.73-10.23-.49-3.07-.93-6.2-1.34-9.21-.33-2.36-.65-4.72-1-7.07-.71-4.7-1.61-9.35-2.72-14.21a114.16,114.16,0,0,0-5.06-14.63,106.71,106.71,0,0,0-9-13l-.19-.25c-1.95-2.52-4-5-5.9-7.18q-2.43-2.85-4.89-5.69c-2.89-3.35-5.87-6.8-8.72-10.28-3.89-4.75-8.46-10.4-12.79-16.22-1.27-1.7-2.52-3.43-3.78-5.16a169.33,169.33,0,0,0-12-15.32c-4.29-4.14-9.34-7.55-14.22-10.86-1.24-.84-2.48-1.68-3.71-2.52-1.79-1.24-3.74-2.65-6.11-4.43l-2.22-1.64c-1.45-1.06-2.94-2.15-4.34-3.29-.73-.59-1.46-1.16-2.21-1.74-1.47-1.14-3-2.33-4.37-3.6-.67-.62-1.36-1.22-2-1.83-1.37-1.21-2.78-2.46-4.07-3.78-4.33-4.45-8.11-8.39-11.58-12.06l-.3-.29c-3-3-6.12-6-9.46-8.75q-5.43-4.41-10.83-8.84c-3.92-3.21-7.48-6-10.9-8.38a148,148,0,0,0-13.52-8.41c-1.38-.78-2.38-2.79-2.9-5.81a18.11,18.11,0,0,1,0-5.81c.37-2.16,1.75-6.25,4.28-6.25a3.11,3.11,0,0,1,1.52.44c5.38,3,10,5.88,14.11,8.73s7.84,5.71,11.45,8.5q2.21,1.71,4.45,3.38a157.8,157.8,0,0,1,15.91,13.17C918,823,921,826,924.07,828.9c1.45,1.38,2.59,2.41,3.7,3.36.51.43,1,.87,1.52,1.32,1,.87,2,1.76,3.06,2.55l1.45,1.07c2.42,1.79,4.91,3.65,7.46,5.37,3,2,6.13,4.08,10.25,6.71,2.18,1.39,4.45,2.73,6.64,4l2.79,1.65a56.51,56.51,0,0,1,9,6.2,96.07,96.07,0,0,1,9.32,9.63c4.31,5.07,9.41,11.05,14.6,16.9L995,889c4.64,5.23,9.45,10.64,14.31,15.84l2.31,2.46c4.17,4.44,8.48,9,12.43,13.8l.43.52.43.52a3.86,3.86,0,0,1,1.75-.45,7.56,7.56,0,0,1,2.43.57l.62.21a15.21,15.21,0,0,1,4.75,3.08l.33.28,1.14.95c2.5,2.09,5.09,4.25,7.52,6.51,3,2.76,5.81,5.52,8.68,8.43a113.45,113.45,0,0,1,8.73,10.07c.74,1,1.48,1.92,2.21,2.88,1.46,1.92,3,3.9,4.54,5.79.4.48.8,1,1.19,1.48.79,1,1.6,2,2.46,2.94l1.06,1.13,1.06,1.13.79.73,2,1.81c5.54,5.09,12.11,8.93,17.82,12,2.46,1.33,4.89,2.7,7.33,4.07,4,2.23,8.08,4.54,12.22,6.63,4.49,2.27,9.21,4.27,13.77,6.21,2.06.88,4.12,1.75,6.16,2.64,6.71,3,12.9,5.39,18.9,7.45,1,.31,2,.61,3,.9l.66.19c.71.2,1.43.41,2.14.57a11.44,11.44,0,0,0,4,.23,15,15,0,0,0,2.51-1.63c.23-.31.45-.62.65-.94.34-.83.64-1.68.95-2.62a130,130,0,0,0,1.74-13.2c.56-6.81,1.2-14.05,2-22.81.36-5.34.65-10.78.94-16,.21-3.93.43-7.87.67-11.8.56-9.08,1.52-18.27,2.45-27.17q.42-4,.82-8c.43-5.78.73-10.89.93-15.62q.11-2.57.2-5.13c.19-5,.38-10.14.79-15.19a31.32,31.32,0,0,1,.38-4l.55-2.11.54-2.11a11.21,11.21,0,0,1,3.78-5.51,4.89,4.89,0,0,1,2.49-.75c4.13,0,6.86,6.72,7.22,10.48,1.2,12.22.87,24.57.38,37.19-.26,6.88-.87,13.71-1.57,21.28l-.35,3.8,0,.21c-.06,5-.12,10-.09,14.94q.05,8.24.14,16.49l.05,6.2c0,1,0,2,0,3.07,0,2.61.07,5.3,0,8-.08,3.93-.29,8.15-.64,12.91s-.88,9.89-1.38,14.71c-.28,2.7-.57,5.4-.82,8.11-.21,3.49-.36,6.69-.42,9.77-.05,2.44.08,4.93.2,7.32l0,.29.27,2.43.3,2.67c.15,1.36.44,2.73.71,4.06.1.46.2.93.29,1.4.55,2,1,3.58,1.55,5,2.75,7.89,5.09,15.06,7.14,21.91,2.24,7.46,4.21,15.45,6.21,25.13.58,2.83,1,5.75,1.39,8.59l.15,1.06q.87,6.15,1.78,12.29c1,6.7,2.21,13.48,3.38,20l.45,2.52c1.18,6.6,2.68,13.53,4.72,21.81l.48,1.93c1.57,6.33,3.18,12.87,4.31,19.39a203.86,203.86,0,0,1,2.55,28.31,170.73,170.73,0,0,1-.82,19.3l-.23,2.91a273.89,273.89,0,0,1-3.35,27.69c-.59,3.23-1.46,6.48-2.3,9.64l0,.16c-.15.56-.3,1.12-.44,1.68-.29,1.13-.59,2.3-.93,3.43-1.08,3.52-2.2,7.15-3.43,10.75a91,91,0,0,1-5.82,13.68c-1.79,3.36-3.72,6.71-5.89,10.25-.71,1.17-1.51,2.42-2.43,3.82a16.71,16.71,0,0,1-1.09,7.25c-.69,1.63-1.39,3.26-2.09,4.88a160.68,160.68,0,0,0-6.68,17.32c-.17.79-.32,1.59-.44,2.39,0,1.49,0,3,.08,4.56a142.27,142.27,0,0,0,3.73,18.95c1.34,4.71,2.79,9.73,4.3,14.61,1.68,5.43,3.56,10.89,5.19,15.59,1.35,3.87,2.91,7.73,4.43,11.47l1.41,3.5c1.19,3,2.63,5.93,4,8.78l.76,1.56.71,1.29c1.92,3.5,3.9,7.11,6.07,10.54,4.8,7.58,10.7,16.39,18.07,24.34a97.47,97.47,0,0,0,20.43,15.3c4.43,2.5,8.53,4.58,12.53,6.37l2.71.61.9.2a85.18,85.18,0,0,0,9,1.65,81.21,81.21,0,0,0,8.85.42h.34c3.25,0,6.56-.23,9.76-.43l1.86-.12,3-.17c2.49-.13,5.07-.27,7.57-.56a97.45,97.45,0,0,0,16.81-3.79c3.52-1,7-2.13,10.27-3.16,2-.63,3.8-1.18,5.48-1.66l.61-.18a25.42,25.42,0,0,1,4.28-1,6.88,6.88,0,0,1,5.4,3.53l2,4a34.09,34.09,0,0,1,0,21.63,13.33,13.33,0,0,1-4.5,6.56,37.53,37.53,0,0,1-5.72,2.82l-1.19.51c-2.48,1.07-4.7,2-6.77,2.76-4.75,1.81-9.43,3.49-13.91,5a59.83,59.83,0,0,1-12.75,3.14l-3.79.39-.19,0c-1.77.18-3.54.32-5.31.46l-1,.08-2.43.2c-3.53.3-7.17.6-10.75.6-.68,0-1.36,0-2,0-9.46-.32-18.84-2.7-27.93-5l-2.44-.62a103.45,103.45,0,0,1-23.15-8.38l-1-.53c-2.18-1.14-4.43-2.32-6.54-3.69a69.92,69.92,0,0,1-8.27-6.33,126.48,126.48,0,0,1-10.87-11.07c-2-2.23-3.79-4.7-5.54-7.09l-.75-1-1.53-2.06c-1.75-2.36-3.57-4.8-5.21-7.29a200.3,200.3,0,0,1-12.18-20.76c-2.4-4.8-4.73-9.74-7-14.51-1.56-3.32-3.12-6.63-4.71-9.93-1.15-2.37-2.34-4.83-3.47-7.3-.48,2.91-.93,5.82-1.36,8.73-.36,2.38-.64,4.82-.92,7.18-.31,2.68-.64,5.45-1.07,8.15l-.38,2.43c-.71,4.52-1.44,9.2-2.59,13.7l-.55,2.13c-.68,2.63-1.37,5.36-2.14,8l2.16,2.25a26,26,0,0,1,3.72,10.19,36.74,36.74,0,0,1-1.47,18.83,15.08,15.08,0,0,1-5.1,7.44c-3.35,2.82-6.53,5.95-9.6,9l-2,1.93-1.31,1.3c-.75.75-1.5,1.5-2.27,2.23-.29.91-.57,1.82-.87,2.72q-1.35,4.18-2.67,8.38c-.52,1.63-.94,3.32-1.35,5l-.44,1.75c.25-.9.49-1.81.72-2.73-.72,3.51-1.53,7.69-2.2,12.05-.46,3-.78,6.1-1,8.7-.46,7.46-.8,15.22-1,23.06l-.07,2.9c-.11,4.29-.22,8.73-.57,13.09v.16c-.51,6.41-1,13-2.19,19.43a174.51,174.51,0,0,1-4.77,20,100.66,100.66,0,0,1-5.45,13.18l-.86,1.84c-5.15,11-11.55,21.38-17.67,31a85.35,85.35,0,0,1-8.28,10.44l-1.64,1.87-.47.54c-3.43,3.93-7,8-10.59,11.88-1.86,2-3.79,4-5.66,5.92l-1.8,1.86a60.62,60.62,0,0,1-5.55,5.25c-2,1.62-4.2,3.3-6.67,5.12a84.78,84.78,0,0,1-9.39,6.27,82.21,82.21,0,0,1-14.07,5.65c-3.4,1.12-6.24,2-8.95,2.7l-4.57,1.21c-3.62,1-7.36,2-11,3-1.93.64-3.82,1.29-5.72,2-2.34.91-4.85,2-7.9,3.34a108.16,108.16,0,0,0-13.72,7.82l-.49.31c-3.12,2-6.17,4.21-9.11,6.37-1.33,1-2.66,1.95-4,2.9-3.3,2.36-6.79,4.57-10.16,6.71l-3.43,2.19L955.9,1778c-3.54,2.3-7.2,4.68-11,6.68l-1,.55c-4.36,2.3-8.86,4.69-13.4,6.77-5.09,2.34-10,4.32-15,6.06-2.07.72-4.13,1.47-6.2,2.22-3.78,1.38-7.69,2.8-11.59,4-2.51.78-5.11,1.58-7.77,2.21-2.86.68-5.77,1.23-8.5,1.75-5.35,1-10.67,1.83-15.62,2.57-1.31.19-2.68.37-4.08.51l9.77,4.64,5.54,2.63c3.86,1.82,7.12,3.3,10.25,4.64,2.1.9,4.3,1.66,6.55,2.41,6.18,1.87,12.54,3.52,19.43,5.07,1.74.39,3.52.72,5.25,1,1.31.24,2.62.48,3.93.75,3,.62,6.22,1.32,10.15,2.21,2.2.5,4.44.95,6.61,1.38l2.71.54,2.69.57c2.16.46,4.39.93,6.61,1.3a166,166,0,0,0,19.16,1.86l.52,0c5.42.27,11,.54,16.53.54h2.2c5.75-.08,11.8-.33,18.5-.75l2.13-.14c6-.37,12.23-.77,18.3-1.56,3-.4,6-.83,9-1.26,3.95-.57,8-1.15,12-1.64l2.93-.36c5.21-.63,10.6-1.28,15.89-2,4.27-.61,8.1-1.08,11.73-1.44,1.56-.15,3.14-.26,4.68-.36s3-.2,4.47-.34a190.47,190.47,0,0,0,36.3-6.68c3.13-1.16,6.13-2.39,9.17-3.78,1.13-.52,2.25-1,3.37-1.58,1.64-.78,3.34-1.58,5-2.32,6.12-2.66,12.42-5.39,18.72-7.84,3.32-1.29,6.75-2.44,10.08-3.55,2.64-.88,5.38-1.8,8-2.78a156.94,156.94,0,0,0,17.25-7.63l3.93-2c3.82-1.94,7.78-3.94,11.62-6,1.55-1.59,3.15-3.14,4.52-4.44,6.18-5.92,12.84-11.52,19.29-16.94l.84-.71a203.74,203.74,0,0,1,21.75-16.19c1.59-1,3.2-2,4.8-3s3.1-1.89,4.63-2.86l1.85-1.89,1.76-1.8c5.09-5.48,9.93-11.34,14.62-17l1-1.16a72.72,72.72,0,0,0,6.26-9l.61-1c1.44-2.37,2.93-4.82,4.25-7.29a42.14,42.14,0,0,0,1.89-5.43c1.62-5.78,3.83-9.92,6.76-12.64a23.17,23.17,0,0,1,4.34-3.26,21.55,21.55,0,0,1,3.49-1.66l.24-.09a9.4,9.4,0,0,1,3-.71l.38,0a7.52,7.52,0,0,1,4.07,1.57,11.78,11.78,0,0,1,3.2,4.94,25.18,25.18,0,0,1,1.29,8.09,31.15,31.15,0,0,1-1.3,8.59,49.76,49.76,0,0,1-6.37,13.25,113.9,113.9,0,0,1-11.87,16c-5.77,6.21-11.11,11.59-16.33,16.47s-10.87,10-17.3,13.59c-2.18,1.23-4.42,2.38-6.6,3.5-1.45.75-2.9,1.49-4.34,2.27-3.43,1.84-6.5,3.58-9.37,5.34-1.77,1.89-3.62,3.83-5.49,5.76l.61-.61-1.4,1.43-.8.83-2.07,2.16a172.51,172.51,0,0,1-12.55,12.26c-3.86,3.29-8,6.39-11.92,9.4l-2.74,2.08c1.38,2.65,2.88,5.45,4.54,8.09l.82,1.33a38.3,38.3,0,0,0,3.19,4.68c.89,1.05,1.78,2.08,2.7,3.09,1.68,1.64,3.3,3.12,5,4.53a49,49,0,0,0,5.72,4.35,80.36,80.36,0,0,0,14.28,6.87,95.37,95.37,0,0,0,27.09,4.15q1.46,0,2.92-.05c5-.18,9.5-.49,13.79-.93l2.24-.23c3.66-.37,7.44-.76,11.11-1.39,10.09-1.74,19-3.66,27.23-5.86,2.61-.7,5.23-1.55,7.77-2.39,1.63-.53,3.25-1.07,4.88-1.56q5.84-1.77,11.69-3.48c2.2-.74,4.56-1.56,6.93-2.53,2.21-.89,4.42-1.87,6.56-2.82l2.58-1.14c3.26-1.43,6.45-2.81,9.67-4.11l2.13-.84c2.13-.84,4.34-1.71,6.45-2.67,6.14-2.79,12.13-6,17.93-9.19,6.26-3.39,11.7-6.43,16.64-9.29,3.27-1.88,6.63-3.7,9.89-5.45,2.46-1.32,5-2.7,7.47-4.08,1.62-.91,3.24-1.83,4.85-2.75,3.86-2.2,7.85-4.48,11.87-6.52l3.43-1.7a104.23,104.23,0,0,0,13.43-7.47l.41-.29a68.11,68.11,0,0,0,6.88-5.23c1.73-1.56,3.5-3.23,5.39-5.11a198.87,198.87,0,0,0,14-17c5.85-8.16,11.23-16.82,16.44-25.2,2.22-3.58,4.52-7.28,6.83-10.9q3.12-4.87,6.22-9.76c5.08-8,10.34-16.24,15.58-24.32l1.66-2.55c3.15-4.86,6.4-9.87,9.78-14.7l.75-1.07c3.63-5.17,7.38-10.52,10.8-15.95,4.64-7.33,8.36-13.35,11.73-19,3-4.91,5.91-10.21,9.29-16.66,2.39-4.87,4.92-10.11,7.26-15.32,2.87-6.38,5.66-13.05,8.53-20.39a318.08,318.08,0,0,0,11.15-35.07l.42-1.71c1.42-5.77,2.88-11.74,3.9-17.69,1.06-6.21,2.13-13,3.36-21.27.61-4.1,1.26-8.19,1.91-12.28q.65-4.11,1.29-8.23c.78-5.07,1.44-10.45,2.09-17,.13-3.41.27-6.89.18-10.34-.07-2.27-.19-4.7-.37-7.43l-.05-.46c-.48-4-1-8.18-1.75-12.23q-1-5-2-9.94l-.54-2.71c-1.66-8.38-3.29-15.74-5-22.5q-.74-2.8-1.46-5.61c-1.83-7.06-3.73-14.36-6-21.43-2.47-7.82-6-15.19-9.67-22.68a126.25,126.25,0,0,0-9.49-16c-3.45-4.72-7.12-9.55-10.92-14.37-.93-1.17-1.85-2.36-2.77-3.54-3.24-4.17-6.6-8.48-10.25-12.39-4-4.34-8.19-8.73-12.32-13.07-1.42-1.41-2.86-2.82-4.29-4.23-1.71-1.67-3.41-3.34-5.1-5-3.71-3.71-7.36-7.58-10.9-11.33a120.5,120.5,0,0,1-7.86-9.26c.29,5.07.39,10.31.29,15.56,0,2.63-.32,5.38-.59,8-.12,1.27-.25,2.53-.36,3.78s-.26,2.69-.46,4.07c-.56,3.95-1.3,7.81-1.88,10.73-1,4.91-2.4,9.95-3.78,14.68-.89,3.07-1.85,6.33-2.91,9.54l-1.32,4c-1.52,4.61-3.09,9.39-4.77,14-2.67,7.36-5.05,13.35-7.5,18.83l-7.86,17.66c-4.24,9.51-8.62,19.14-12.85,28.46l-3.59,7.9c-3.4,7.48-7,15-11.11,23-1.88,3.69-3.94,7.35-5.94,10.89-1.12,2-2.24,4-3.33,6l-2.47,4.52c-5.09,9.29-10.34,18.89-15.26,28.48l-1,1.94c-2.35,4.8-4.78,9.76-7.41,14.5l-.71,1.27c-1.29,2.33-2.62,4.74-4,7-1,1.59-2,3.18-3,4.71-.57.88-1.15,1.75-1.72,2.63a13.23,13.23,0,0,1-4,5.1,4.94,4.94,0,0,1-5.78,0,13.36,13.36,0,0,1-4.5-6.57l-.66-2.58-.64-2.45a37.73,37.73,0,0,1-.77-9.52,26.87,26.87,0,0,1,.83-7.77c.55-2.38,1.18-4.77,1.89-7.1.43-1,.9-2,1.39-3.05,1.43-3,3-6,4.87-9.27,2.13-3.72,4.4-7.73,6.55-11.79q2.15-4.07,4.25-8.16c2.5-4.82,5.08-9.81,7.75-14.65q3.19-5.77,6.43-11.52c5.24-9.35,10.66-19,15.65-28.7,7.25-15.68,14.26-31.78,21-47.36l4.66-10.7.38-.87c3.82-8.73,7.76-17.76,10.79-27,2.54-7.73,5.47-16.74,8-25.75.54-2.41,1.09-5,1.56-7.63s.77-5.08,1-7.2c.09-1.87.13-3.5.13-5s-.06-3.33-.16-5.58c-.43-3.79-.87-6.87-1.39-9.7-.62-3.39-1.39-7-2.49-11.61-4.73-17.37-9.67-31.5-15.55-44.44l-2.36-4.56c-3.23-6.25-6.57-12.71-9.7-19.16a225.42,225.42,0,0,1-9-22.37l-.27-.75c-2.75-7.64-5.59-15.87-7.83-24.24-2.39-9-4.6-18.15-6.73-27l-.86-3.6c-2.32-9.65-4.24-19.54-6.1-29.11-.73-3.77-1.46-7.54-2.22-11.3-1.82-9.07-3.91-18.26-5.93-27.15q-1.36-6-2.7-12c-5.07-22.87-10.93-47.37-18.46-77.11-2.92-11.32-5.82-22.91-8.62-34.45-3-12.32-5.36-22.62-6.4-33.59l-.26-2.7c-.67-7-1.36-14.18-1.5-21.29-.11-5.55,0-11.48.21-18.15.27-7.09.83-14.7,1.73-23.27l.06-.62a135.19,135.19,0,0,1,2.35-16.18c2.08-9.07,4.14-17,6.29-24.33,1.88-6.38,3.91-12.66,6.39-20.12q.84-2.52,1.66-5c1.37-4.2,2.78-8.53,4.31-12.74,2.61-7.19,5.4-14.29,7.54-19.66q1.61-4,3.19-8.05c3.84-9.73,7.81-19.79,12.14-29.51,5.23-11.73,11.36-23.91,19.28-38.33l2.24-4.07c5.63-10.27,11.46-20.89,17.71-31s13.06-20.26,19.6-30l2.26-3.37c8.15-12.16,15.34-23.18,22-33.68,3.58-5.66,7.38-11.71,10.93-17.84,2.48-4.28,5-9,8-14.89l.22-.45c2.37-4.83,4.81-9.82,7-14.84,1.11-2.58,2.21-5.17,3.3-7.76,1.5-3.57,3.06-7.25,4.64-10.86,5.25-12,10.92-23.42,17.25-36,3.23-6.71,5.57-12,7.59-17.07,1.77-4.45,3.45-9.35,5.3-15.43.84-3.72,1.55-7.2,2.15-10.63.69-3.95,1.16-7.86,1.67-12.51q.09-1.41.15-2.83c.13-3,.08-6.09,0-9.06-.23-2.25-.48-4.1-.79-5.81-.57-3.16-1.21-6.36-1.89-9.5a124.61,124.61,0,0,0-5.86-16.24c-2.53-5.52-4.84-10.45-7.05-15.07l-.25-.48c-.73-1.37-1.48-2.8-2.29-4.14a89.21,89.21,0,0,0-9.82-13.45c-4.13-4.09-8-7.67-11.82-10.93A77.63,77.63,0,0,0,1547.46,262l-.53-.26c-3.47-1.69-7.05-3.45-10.72-4.86a40.79,40.79,0,0,0-10.1-1.22c-1.18,0-2.41,0-3.65.14ZM648.54,1028.07c-1.66-3.29-3.37-6.7-5-10.07l-.85-1.76c-1.63-3.36-3.32-6.84-4.75-10.35-1.31-3.23-2.58-6.54-3.81-9.74l-1.08-2.79q-.4-1.05-.8-2.13c-.55-1.49-1.12-3-1.78-4.51l-2.73-6.2C625,975.2,622,969.92,619.21,965l-.57-1c-2.65-4.7-5.4-9.55-7.74-14.49a4.09,4.09,0,0,1,.28-3.61.93.93,0,0,1,.71-.47c.54,0,.93.71,1.08,1l.32.66c2,3.85,4.55,8.64,7.24,13.07l2.12,3.46c2.05,3.35,4.17,6.8,6.15,10.27a155.28,155.28,0,0,1,7,14.6c2.05,4.7,3.83,8.6,5.59,12.28,2.48,4.56,5.16,9.2,8.21,14.19,5.73,9.37,10.85,17.86,15.52,26.87l.42.81c2.18,4.22,4.44,8.59,6.88,12.75l1.45,2.48c2.23,3.8,4.52,7.72,6.71,11.63,2,3.52,3.82,7.17,5.62,10.7.63,1.23,1.26,2.47,1.89,3.7,2.12,4.11,4.34,8.26,6.48,12.27l1.06,2c4.14,7.75,8,15.79,11.77,23.56l2.54,5.26c4.14,7.86,8.61,15.73,12.48,22.49,2.48,4.34,5.13,9,7.89,13.5.85,1.4,1.69,2.8,2.53,4.21,1.89,3.17,3.86,6.45,5.89,9.6,4.32,6.72,8.87,13.46,13.27,20l4.19,6.21c3,4.45,6.14,8.89,9.18,13.19s6.17,8.7,9.14,13.13l2.75,4.12c2.09,3.13,4.24,6.36,6.42,9.5,2.9,4.18,6,8.33,9,12.34l.16.22q2.4,3.21,4.77,6.43c5,6.7,10.09,13.63,15.34,20.29l.79,1c5.64,7.16,11.47,14.56,17.75,21.37,2.12,2,4.17,3.84,6.26,5.64a40.87,40.87,0,0,0,11.91,7.41,58.22,58.22,0,0,0,9.39,1.55q-4.35-4.94-8.7-9.88c-1.11-1.26-1.27-3.69-1.27-5a10.92,10.92,0,0,1,.6-3.68c.65-1.69,1.5-2.55,2.51-2.55a2.33,2.33,0,0,1,1.84,1.2c6.14,7,12.3,13.84,18.6,20.82,1,0,1.92,0,2.88,0,1.77,0,3.53,0,5.25-.14,5-.27,10-.82,14.13-1.33a113,113,0,0,0,17-3,50,50,0,0,0,12.85-7,98.59,98.59,0,0,0,11-9.85c1.14-1.2,2.27-2.41,3.38-3.64l3.21-3.55,3.21-3.55c1.29-1.42,2.5-3,3.67-4.46.6-.77,1.2-1.54,1.81-2.29,2.82-3.47,5.42-7.18,7.94-10.78l1.76-2.51c1-1.43,1.93-3,2.82-4.46.42-.7.83-1.39,1.26-2.08l.84-1.36a9,9,0,0,1-2.76-4.18,22.23,22.23,0,0,1,0-14.13,8.69,8.69,0,0,1,2.94-4.29l3.66-1.63c1.48-.67,3-1.33,4.46-2l1.09-.47,1.09-.47a38.22,38.22,0,0,1,4-1.43l.6-.21a5.5,5.5,0,0,1,1.7-.44,7.4,7.4,0,0,1,3.71,1.15c2.24,1.48,3.74,4.89,4.28,6.29a27.88,27.88,0,0,1,1.56,10.45,35.28,35.28,0,0,1-1.72,10.37l-.06.23a38.83,38.83,0,0,1-2.62,6.57l-.17.35c-1,2.12-2.09,4.32-3.19,6.45l-.86,1.66c-.83,1.62-1.66,3.24-2.52,4.84-.41.75-.8,1.52-1.21,2.28-.82,1.57-1.67,3.2-2.58,4.75l-4.94,8.46c-1.77,3-3.79,6-5.75,8.81-.79,1.15-1.59,2.3-2.36,3.46-.38.56-.82,1.11-1.24,1.64l-.6.76-1.62,2.11-1.91,2.5c-1.62,2.12-2.91,3.73-4.19,5.24l-1.77,2.09c-1.64,2-3.34,4-5.05,5.93-3.26,3.71-6.75,7.42-10.36,11a70.21,70.21,0,0,1-8,7.07,46.33,46.33,0,0,1-10.19,5.9,77.88,77.88,0,0,1-9.78,3.24,40.58,40.58,0,0,0,5.07,2.53c3.38,1.4,6.91,2.57,10.32,3.71l1.64.55c1.84.62,3.69,1.3,5.48,2l2.11.78c1.84.68,3.68,1.38,5.51,2.09l2.08.8c1.61.62,3.28,1.16,4.89,1.7l1.16.38a32.08,32.08,0,0,0,8.33,1.62l1.18,0a44.2,44.2,0,0,0,7.27-.66c2.13-.35,4.28-.78,6.36-1.19l1.35-.27,2.07-.41c2.86-.58,5.82-1.18,8.75-1.49a110.33,110.33,0,0,1,11.87-.71h.16c7.65,0,15.43.14,23,.26l11.69.18q2.81,0,5.63,0c3.2,0,6.35,0,9.36-.11,3.44-.08,6.27-.18,8.91-.31a74.76,74.76,0,0,0,17.77-3c10.27-3.52,20.38-9.48,30.91-18.2,2.88-2.39,5.66-5,8.36-7.5.8-.75,1.61-1.51,2.42-2.25l2.27-2.43,2.28-2.43,1-1.1c1-1.1,2.12-2.23,3.1-3.41l2.56-3.06c2.55-3,5.18-6.18,7.64-9.36,7.39-9.54,14.63-19.24,21.35-28.3l.79-1.07c6.15-8.3,12.52-16.89,19.94-24.31a52.59,52.59,0,0,0,3.32-4.46l1.15-1.65c.73-1,1.48-2.05,2.22-3.07l1.84-2.54a3.69,3.69,0,0,1,2.79-1.78,2.89,2.89,0,0,1,1.47.44,6.9,6.9,0,0,1,2.31,3.38,16.21,16.21,0,0,1,0,11.13c-1.24,3-2.34,6.09-3.46,9.19q-.39,1.08-.76,2.17c-1.3,3.74-2.64,7.61-5,10.87-2.89,4-6,7.82-9.07,11.55l-1.18,1.45c-5.11,6.28-10.18,12.75-15.09,19l-5.09,6.48c-3,3.87-6.21,7.75-9.27,11.5l-1.34,1.64c-2.36,2.9-4.88,5.75-7.32,8.51l-3,3.36c-1.5,1.71-3.16,3.36-4.77,4.95q-1.14,1.12-2.26,2.25l-1.34,1.39c-1.12,1.17-2.27,2.38-3.5,3.46l-3.91,3.45-3.91,3.45a109.06,109.06,0,0,1-14.68,10.72c-13.51,8.38-27,12.78-40.18,13.06-2.76.06-5.48.09-8.1.09-2.84,0-5.65,0-8.35-.11-6.72-.17-13.55-.49-20.15-.8q-6-.28-11.93-.53l-2.05-.08c-4.29-.18-8.71-.35-13.06-.35a109.4,109.4,0,0,0-12.95.68c-3.19.38-6.37.79-9.56,1.2l-1.12.14a51.83,51.83,0,0,1-6.44.48,26,26,0,0,1-3.36-.2,38.76,38.76,0,0,1-11.19-3.36l-2.12-1c-1.55-.7-3.16-1.42-4.71-2.18l-2.15-1.06c-1.77-.87-3.53-1.75-5.31-2.59l-2.16-1c-1.73-.83-3.52-1.68-5.3-2.48l-2.64-1.16c-3-1.33-6.18-2.7-9.13-4.31a68.67,68.67,0,0,1-16.07-12.34l-.65-.66-.64-.65c-4.39.6-9.09,1.2-13.87,1.52-1.68.11-3.41.17-5.29.17-3.76,0-7.54-.23-10.78-.44l-2.18-.13c-2.55-.15-5.19-.31-7.74-.69a34.75,34.75,0,0,1-5.62-1.26l-1.48-.46a39.42,39.42,0,0,1-5.75-2.12,35.28,35.28,0,0,1-7-4.6,142.7,142.7,0,0,1-14.48-13.91c-3.59-4-6.84-8.21-10-12.33-6.9-9-13.62-18.36-20-27.68-2.11-3.09-4.24-6.16-6.37-9.23-4.19-6-8.52-12.28-12.57-18.55-1.73-2.68-3.43-5.45-5.08-8.13-1.14-1.86-2.29-3.72-3.45-5.56-1.55-2.46-3.21-4.92-4.82-7.29-1.26-1.86-2.57-3.79-3.81-5.7-3.81-5.87-7.52-11.94-11.12-17.81q-3.26-5.34-6.57-10.65c-6.21-9.93-11.63-20.08-15.66-27.81-5.32-10.21-10.5-20.46-15.52-30.38-2.64-5.23-5.2-10.83-7.81-17.12l-1.24-3c-1.63-3.94-3.31-8-5.11-11.95s-3.66-8-5.5-11.93c-2.83-6.11-5.76-12.43-8.55-18.68-2.54-5.69-4.95-11-7.37-16.08l-1.18-2.48c-1.85-3.89-3.76-7.91-5.42-11.95l-1.67-4.09c-1.65-4-3.36-8.22-5.12-12.29-1.85-4.27-3.83-8.32-6.18-13h0l-.47-.94-.18-.36v0l-1.12-2.22Z" transform="translate(-436.53 -209.34)"/><path class="cls-2" d="M497.48,1280l-.19.43c-2,4.47-4,9.09-5.88,13.7-4.77,11.79-8.83,22.15-12.41,31.7l-1.09,2.9c-3.19,8.48-6.49,17.26-9.27,26-.63,2.86-1.11,5.39-1.48,7.74l-.59,3.81c-.46,3-.93,6-1.42,8.93l-.08.5c-1.25,7.69-2.55,15.64-3.49,23.52-.67,11.73-.79,24.62-.38,40.57.3,11.79,1.19,23.75,2.05,35.31l.17,2.27c1.53,15,4.16,30,6.7,44.61q.59,3.4,1.18,6.81c.73,4.22,1.34,8.53,1.93,12.69.61,4.32,1.25,8.79,2,13.16.93,5.34,2,10.77,3.24,16.13a35.09,35.09,0,0,1,1.19,5,238.88,238.88,0,0,0,8.75,25.21c3,7.07,6.2,14.15,9.34,21q1.56,3.4,3.11,6.8,1.82,4,3.67,8c2.75,6,5.61,12.25,8.29,18.42,1.19,2.73,2.35,5.53,3.47,8.24.7,1.68,1.39,3.37,2.11,5,1.3,3.07,2.78,6.36,4.52,10.05a73.31,73.31,0,0,0,5.69,9.15c1.58,2.1,3.19,4,4.92,6a114.19,114.19,0,0,0,26.7,19.62A158.7,158.7,0,0,0,577,1721.2c6.27,2.39,11.12,4.13,15.73,5.64,12.46,4.09,22.82,7.8,32.89,12.6,2.14,1,4.26,2.08,6.37,3.13,3.23,1.61,6.58,3.29,9.95,4.78a114.42,114.42,0,0,0,11.76,4.23l2.33.75c7.39,2.32,14,4.2,20.32,5.75,3.8.93,7.56,1.75,11.49,2.49,2.41.46,4.93.75,7.35,1,1.14.13,2.27.27,3.4.41a154.79,154.79,0,0,1,20.69,4.55l3.48.95c6,1.64,12.29,3.35,18.41,5.1,2.25.65,4.5,1.33,6.75,2,4,1.21,8.15,2.46,12.27,3.5,6.45,1.62,13.05,3,19.62,4.21,1.48.26,3,.51,4.48.76,3.68.61,7.49,1.24,11.17,2.13a14.68,14.68,0,0,1,2.06-5.57l.79-.81.79-.82a6,6,0,0,1,2.6-.85l.27,0a8.65,8.65,0,0,1,2,.58l.66.24a14,14,0,0,1,1.7.76l.58.29c1,.5,2.14,1,3.19,1.39l1.42.59c3.54,1.51,6.28,2.58,8.88,3.47a18.22,18.22,0,0,0,4.71.78h.13a19.4,19.4,0,0,0,4.29-.5,17,17,0,0,0,2.27-1.07,9.67,9.67,0,0,0,1.29-.89,5.68,5.68,0,0,1,3.41-1.58h.11a9.79,9.79,0,0,1,2.07.38,13.73,13.73,0,0,0,1.57.34l.86.12c.75.11,1.5.21,2.26.27s1.78.11,2.77.11c1.59,0,3.17-.09,4.64-.19,5.19-.35,10.26-.72,15.28-1.41,6.06-.83,11.06-1.62,15.73-2.5,3.33-.62,6.05-1.19,8.58-1.79,2-.47,3.87-1,5.64-1.59l3.21-1.16c2.18-.79,4.37-1.58,6.56-2.34l3.41-1.15c2.45-.82,5-1.66,7.41-2.62,4.93-1.92,9.92-4.1,14.83-6.46l1.63-.78c4.32-2.08,8.78-4.22,13-6.71a324.74,324.74,0,0,0,27.29-18.22c10.46-7.78,19-12.87,27.61-16.52,7.91-3.34,16.3-5.69,24.41-8,2.77-.77,5.55-1.55,8.32-2.37a73.23,73.23,0,0,0,10.67-4.17,74.7,74.7,0,0,0,11.18-7.26c2-1.52,4.32-3.34,6.63-5.27,1.61-1.35,3.08-2.82,4.69-4.45l4.06-4.27c3.34-3.53,6.63-7.22,9.8-10.79l1.14-1.28,1.49-1.66c1.09-1.21,2.18-2.42,3.25-3.65l.76-.87a57.79,57.79,0,0,0,4.52-5.65c1.77-2.63,3.52-5.29,5.26-7.94l3.6-5.46c2.57-3.87,5.09-8.14,7.71-13,1.25-2.51,2.55-5.19,3.64-7.87.74-1.84,1.58-3.92,2.28-6,.45-1.36.86-2.75,1.22-4,1.07-4.51,1.91-8.66,2.55-12.68.6-3.78,1.1-7.77,1.52-12.21.14-2.57.26-5.14.39-7.71l.06-1.26c.59-12.59,1.28-24.89,3-37,.44-3,.95-5.92,1.52-8.7-2.23,1.34-4.51,2.73-6.84,3.93-3.7,1.9-7.49,3.77-11.15,5.59-2.72,1.35-5.45,2.7-8.16,4.07q-4.89,2.47-9.76,5c-9.5,4.86-19.32,9.89-29.23,14.34q-8.31,3.73-16.62,7.5l-4.08,1.84c-6.5,2.94-13.32,5.49-19.34,7.75-2.23.84-4.52,1.63-6.73,2.41-4,1.39-8.14,2.84-12.12,4.57-3.55,1.54-7.14,3.15-10.61,4.71-3.17,1.42-6.33,2.84-9.51,4.23-3.81,1.66-7.8,3.07-11.67,4.43-2.49.88-5.06,1.78-7.55,2.75-3.81,1.47-7.58,3.2-11.22,4.86-2.39,1.09-4.86,2.22-7.32,3.27-3.81,1.63-7.41,3.05-11,4.37s-7.23,2.46-10.79,3.58l-2.22.7c-6.66,2.11-13.51,3.64-20.54,5.16-3.81.82-7,1.49-10.06,2.11s-5.93.93-8.85,1.27l-1.81.21c-2.68.32-5.43.49-8.09.65l-2.39.14c-1.88.13-3.77.19-5.59.19-1.46,0-2.9,0-4.28-.12-7.51-.42-15.11-.94-21.65-1.39a144,144,0,0,1-20.74-3.3c-1.78-.39-3.55-.8-5.32-1.21-4.62-1.07-9.41-2.17-14.21-2.9-4.3-.65-8.64-1.46-12.84-2.24-2.73-.51-5.47-1-8.22-1.49-5.29-.91-10.7-1.54-15.93-2.15l-5.21-.62a73,73,0,0,0-8.82-.48c-3.16,0-6.36.14-9.46.27l-1.9.08c-3.49.14-7,.38-10.47.61-1.56.11-3.07.2-4.59.2a23.26,23.26,0,0,1-6.12-.71c-1.91-.51-3.61-1-5.21-1.51-3.26-1-5.93-1.95-8.4-2.84a34.81,34.81,0,0,1-8.41-4.7c-2.22-1.6-4.44-3.29-6.58-4.92l-2-1.54-3.48-2.61a155.14,155.14,0,0,1-12.71-10.2c-5.65-5.23-11.14-10.59-16.24-15.6s-10.26-10.67-16.42-18l-2.73-3.22c-3.54-4.17-7.2-8.49-10.63-12.86q-3.18-4-6.34-8.12-3.65-4.69-7.32-9.37c-3.66-4.63-7.45-9.28-11.12-13.77l-2.89-3.54c-2.56-3.14-5.08-6.4-7.52-9.55-1.62-2.09-3.23-4.18-4.87-6.25l-2.36-3A159.16,159.16,0,0,1,566,1474a201.15,201.15,0,0,1-12.43-22.13c-1.73-3.71-3.27-7.06-4.61-10.57-1.18-3.1-2.24-6.32-3.25-9.86-2.53-8.82-4.65-15.59-6.87-21.94-.93-2.67-1.95-5.36-2.93-8-1.39-3.7-2.84-7.54-4.08-11.37-1.79-5.55-3.45-11.24-5.06-16.74l-1.3-4.41c-1.22-4.14-2.56-8.32-3.86-12.37-.89-2.78-1.79-5.56-2.65-8.34q-.7-2.26-1.38-4.53c-1.52-5-3.09-10.21-5-15.22-2.83-7.48-5-13.77-6.8-19.82q-3.39-11.36-6.71-22.72c-.59-2-1.12-4.06-1.61-6h0Z" transform="translate(-436.53 -209.34)"/></svg>